<?xml version="1.0" encoding="UTF-8"?>
<svg id="Layer_1" data-name="Layer 1" xmlns="http://www.w3.org/2000/svg" viewBox="0 0 1224 792">
  <defs>
    <style>
      .cls-1 {
        fill: #ab8e87;
      }

      .cls-2 {
        fill: #b29790;
      }
    </style>
  </defs>
  <path class="cls-1" d="M572.16,184.32c.12.92-.07,1.94,0,2.88.25,3.17.79,6.09.96,9.6.11,2.38-.33,5.03,0,8.64,1.04,11.23,1.9,6.35,5.61,14.07.4.83,2.53,6.51-.31,5.12-2.45-1.2-1.97-6.5-4.32-7.67.39,2.45-.83,7.77.43,9.63.51.76,13.38,6.65,16.19,8.77,3.37,2.54,5.18,5.85,8.32,8.47-.95-21.28,6.71-45.34-11.51-61.44-.05-.35.11-.82,0-.96-3.16-2.7-4.89-9.33.53-5.81,6.8,4.42,10.12,14.74,14.58,20.92.37.51.05,1.85,1.68,1.2,1.4-.55,8.9-14.93,12.01-18.23.3-.32.63-.66.96-.96,6.58-5.94,9.56-5.11,3.84,2.88-4.06,5.68-9.1,10-11.08,17.24-2.57,9.37-1.6,25.44-1.4,35.56.02.96-.03,1.92,0,2.88.06,2.07-.04,4.16,0,6.24,1.98,1.94,2.04-1.09,3.3-2.42,1.84-1.92,4.31-4.62,6.36-6.16,7.6-5.71,19.15-5.54,16.25-17.82l-3.85,7.67c-2.33.42-2.17-.48-1.95-2.43.47-4.13,5.68-8.28,5.79-8.8.4-1.98.81-7.47.98-9.89.13-1.9-.06-3.85,0-5.76.11-3.51-.08-7.05,0-10.56.94-1.49.74-1.15.96-2.88.84-6.48.87-9.86,3.38-16.3.95-2.43,10.17-19.37,11.2-19.97.81-.47,1.82-.14,2.69-.21.38,4.52-3.2,7.71-4.96,11.83-3.86,9.04-6.69,18.5-6.55,28.48l8.23-14.31c3.41-3.33,7.12-7.92,10.96-10.64,2.01-1.42,8.11-4.69,10.44-5.4,1.15-.35,2.84-.83,2.03,1.07-.9,2.09-13.43,9.4-16.35,12.45-11.88,12.43-12.96,34.22-13.39,50.44,3.21-2.55,6.77-4.64,9.59-7.68.3-.32.73-.6.96-.96.13-.2.89-.18.95-.53.37-1.96-5.58-5.92-7.66-6.21l5.75-1.9c.33.31.62.67.96.96,1.04,1.16,1.79,3.55,2.93,4.39,1.28.96,1.66-.49,1.87-.55.4-.12,1.22.27,1.69-.23.49-.52.1-1.33.23-1.69.15-.43,1.29-.71.86-2.19-.36-1.24-1.56-1.31-1.82-1.65-.79-1.03-1.19-1.21-1.92-1.92-.84-.82-1.23-1.67-2.54-2.71-1.64-1.3-5.86-2.82-6.1-3.06-1.84-1.86,1.84-2.19,3.31-1.86,2.68.6,5.04,3.66,8.19,3.33-1.28-1.28-2.46-2.67-3.87-3.82-2.3-1.87-2.63.07-3.79-3.39,1.22-.14,2.69.2,3.84,0l5.75,3.84c-.53-1.91,2.11-6.68.42-7.78-5.06-3.3-13.48,1.61-5.56-7.43,11.01-3.79,16.37,5.08,12.84,15.21,2.92-2.62,5.99-8.65,5.75-12.48-.02-.33.07-.71,0-.96,2.7.65,2.42-3.12,2.78-4.65l-10.46-6.85c5.61-2.81,7.54,2.7,10.61,4.29,1.21.62,3.62.38,3.77.52,3.26,3.13-9.72,27.66-12.93,31.67-7.29,9.11-18.13,14.8-26.04,23l.59,47.06c.56.65,7.98-5.52,8.66-6.21,6.93-7.01,6.49-16.89,9.79-25.73,4.5-12.05,13.83-22.69,26.66-25.65,2.61,2.67-12.01,11.44-13.91,13.44-12.5,13.19-1.75,34.31-16.79,50.41-8.46,9.06-20.88,10.09-17.29,26.38,1.11.15,1.5-1.74,1.91-1.92.43-.19,1.4.17,1.92,0,15.49-5.2,32.5-4.86,41.16-21.72,5.77-11.23,10.43-38.71,11.63-51.73.19-2.08.96-16.21.78-17.04-.21-1.02-4.55-8.01-5.57-9.34-3.37-4.4-11.48-6.51-11.5-7.2-.03-1.45,3.54-1.55,4.78-1.44.11.01,1.17.75,1.92.96,2.2.62,2.99.3,5.13,2.07s2.42,4.31,4.46,5.61c-.14-3.97.25-8.01,0-11.98-.2-3.2-4.36-13.38,1.94-10.1-.02.31-.01.65,0,.96.14,3.49,2.88,9.94,2.88,12.96v24.96c0,.17,1.52,1.7,1.9,1.44,5.19-13.02,20.04-16.75,32.65-18.23.41,1.98-.98,2.22-2.21,3.06-4.83,3.29-11.55,4.06-16.5,8.46-13.52,12-10.38,39.2-13.92,55.68-.46-.05-.76.03-.95.49-.16.4.08.95,0,1.43-1.77,9.36-2.44,17.6-8.66,25.42-1.86,2.34-7.53,6.15-7.66,8.18-7.44,1.6-17.51,5.98-24.96,8.64-1.79.64-4.89.89-6.72,1.92-2.33,1.31-2.78,3.57-.59,2.8.34-.12.45-.87.59-.88,14.45-.96,20.67,11.27,19.08,24.37-.19,1.59-1.74,9.29-4.24,5.42-1.84-2.85,1.25-14.36-2.88-19.24-.72-.85-2.24-.79-2.37-.95-.4-.45-.26-2.82-1.95-4.29-2.32-2.02-9.93-3.2-12.78-2.44-1.07.29-.52,1.83-.63,1.93-.79.72-.45-1.04-1.92,1.92-.48.96-2.54,4.23-1.92,4.79,5.86.26,8.68-1.68,11.52,3.85l-.46.79c-.8-.31-1.59-.57-2.42-.79-3.54-.92-6.66-1.48-10.43-.83-1.35,3.03-1.55,6.25-2.05,9.47-.12.76-.86,1.73-.96,2.88-.79,8.76-.36,28.04,4.83,35.01,20.75,27.88,78.89,5.28,106.5,36.54,3.1,3.51,17.15,26.57,14.42,29.25-.2.19-2.22.32-2.94-.59-3.83-4.85-5.87-17.15-13.37-19.56.87-3.79-1.57-2.57-1.92-2.88-6.29-5.56-19.92-11.52-28.32-11.52h-17.76l7.62,4.38c12,10.76,17.38,26.74,26.51,39.74,2.64,8.25-6.26,7.24-11.35,4.81-1.11-.53-.16-2.25-1.65-1.88,2.81,11.03,10.09,21.04,10.55,32.63-3.59.33-6.72-.31-9.78-2.23-2.8-1.75-3.18-4.72-5.58-6.41-1.04,3.27,4.47,15.17,1.96,16.85-4.49,3-9.42-6.48-11.42-5.15-.51.34.62,2.92-4.02,1.3-10.07-3.51-8.38-14.86-12.96-20.64-1.17-1.47-5.83-5.17-7.67-6.73-10.76-9.09-23.86-16.87-37.89-19.22,9.06,9.23,23.27,11.3,25.68,26.62,3.3,20.95-12.43,2.98-19.05-1.1-5.92-3.65-10.95-3.65-16.9-6.14s-18.94-13.7-25.03-7.64c-2.29,2.28-6.28,30.23-5.03,31.46,1.68.02,3.4.16,5.06-.23,1.02-.24,8.58-5.22,6.43-.29-1.05,2.41-9.7,4.5-12.45,4.35v18.24c4.8-1.2,15.49.35,12.48-6.71,3.51.13,4.82,1.57,3.65,5.08-1.67,5.01-16.44,3.87-17.1,4.51-.59.58,1.56,7.7-2.38,7.69-.83.02-.73-6.92-1.55-7.59-.95-.78-12.28.29-15.82-3.87-3.08-3.61-.66-5.36,3.43-4.87l-.96,3.83,13.44,1.93v-15.84c0-4.15-11.1-2.28-13.29-7.83-1.98-5.03,5.15.75,6.54,1.14,1.94.55,3.82.57,5.8.46,1.04-1.04-2.99-26.21-4.1-29.03-4.17-10.59-22.59,3.67-28.84,6.17-3.56,1.42-7.79,1.59-11.24,3.16-4.95,2.26-23.28,22.31-22.78,7,.57-17.67,13.66-19.22,23.7-27.2,1.14-.9,2.31-1.59,1.97-3.3-13.08,2.37-24.77,9.1-35.01,17.3-12.47,9.98-8.54,9.62-14.88,21.6-2.14,4.04-10.43,12.04-12.99,5.25-13.88,15.8-11.34.55-8.17-10.56-4.8,5.19-8.22,9.99-16.31,8.63l10.55-31.67c-4.82,2.85-13.62,5.27-13.05-2.9,8.3-10.62,14.02-27.87,23.21-37.35,3.46-3.57,7.78-4.3,10.97-7.75h-17.76c-7.77,0-21.62,6.16-27.36,11.52-.31.29-2.82-.88-1.92,2.88-7.38,2.29-9.7,13.52-13.57,18.59-.89,1.16-2.72,2.54-3.7,1.57s7.42-18.12,8.82-20.45c25.94-43.14,77.75-15.99,107.84-40.96,6.77-5.62,8.5-8.86,9.14-17.74.79-10.92.29-23.47-2-34.07-3.85-.3-7.74,0-11.48.92-.87.21-1.83.97-2.88.96.82-6.24,7.77-4.76,12.48-4.81.28-2.16-1.91-3.29-2.88-4.79-.32-.49-.35-1.2-.96-1.92-2.81-3.3-4-2.82-8.68-1.47-5.65,1.62-3.98,2.36-6.68,5.31-.7.76-.7,1.58-.96,1.92-.1.13-1.65.11-2.37.96-2.68,3.15-1.08,10.65-1.47,14.89-.64,6.94-4.21,5.85-4.8-.98-1.27-14.79,3.76-26.23,20.15-25.91-7.41-5.91-17.63-5.94-26.56-9.92-14.54-6.48-21.06-18.08-22.39-33.77.02-.31.01-.65,0-.96-.19-5.16-2.88-14.83-3.7-20.78-2.31-16.73-.49-32.26-17.73-41.79-1.75-.97-11.98-4.48-12.19-5.11-.15-.46-.33-2.43.53-2.42,9.36,1.81,20.8,3.48,27.35,11.03l5.74,8.18v-23.52c0-4.65,2.92-11.22,2.88-16.8.23-.05,2.22-3.52,3.84-1.92.85.85-2.37,20.76-1.91,23.99,2.26-1.66,2.83-4.8,5.25-6.74,1.76-1.4,2.96-1.21,4.34-1.9.6-.3,1.05.13,1.92-.96l4.8,2.87c-4.74-.45-5.84,1.36-8.64,3.85-.65.58-2.45,2.31-2.88,2.88-5.27,6.9-5.18,10.12-4.79,18.71.66,14.74,6.77,51.94,15.35,63.37,9.36,12.46,23.67,11.69,36.48,15.84.3.1,1.8,1.43,2.88,1.92.96.44,1.51,1.31,2.87.96.05-4.55.51-10.57-2.41-14.4-1.34-1.76-2.88-1.51-3.34-1.92-.59-.52-1.05-1.2-1.92-1.92-5.78-4.76-12.56-9.26-15.84-16.32-6.95-14.99.99-30.84-12.95-43.69-1.87-1.73-12.26-8.53-12.49-9.6-.19-.88.81-2.2,1.48-2.38,3.72-.98,17.02,10.6,19.62,13.93,11.08,14.23,5.7,35.91,24.98,43.65-1.96-15.83.72-31.46-.19-47.32-8.57-8.73-19.93-14.7-27.08-24.76-2.83-3.98-14.54-26.39-11.08-29.63.26-.25,2.5.2,3.76-.53,1.16-.68,1.29-3.05,3.81-3.89,2.19-.73,4.54-.39,6.78-.41l-10.63,7.34c1.75,5.57,3.55,12.63,7.74,16.66.24-5.43-1.66-10.69,3.93-13.84,3.36-1.89,9.67-2.81,10.47,2.32-2.37-2.06-10.72-.21-12.01,1.9-1.59,2.61,1.76,12.44.51,16.33,1.41.08,1.69-3.45,1.79-4.43.25-2.43-.41-8.49.33-9.76,1.75-3.02,9.02-3.6,12.26-3.08.47,2.89-.71,1.54-2.33,1.94-7.3,1.8-7.95.26-7.26,9.58l6.71-3.84c.87.25,2.22-.32,2.88.96-1.03,1.28-3.31,1.61-2.87,3.84.88-.74,10.51-1.95,7.67.95-.9.92-8.3,1.74-7.67,5.77.75.72,5.07-3.34,6.71-1.91,1.99,1.74-5.64,4.15-3.83,5.75.29.26,10.18-2.52,6.71.95-1.01,1.01-9.05,2.56-7.68,6.73-.28.84.8.8.96.96,2.46,2.47,6.66,5.67,9.6,6.72v-16.8c0-11.51-7.56-27.89-16.31-35.53-2.68-2.34-13.29-7.8-12.39-11.31,1.27-4.95,16.7-8.99,18.13-1.64-3.28.07-6.57-.22-9.85.23-1.11.16-5.23,1.21-5.5,2.64,5.06,4.72,14.13-6.38,17.27,1.93-2.33-.09-4.6-.07-6.93.28-7.08,1.08-2.25,4.51,0,3.29.17-.09.13-1.47.85-1.63,1.69-.38,7.65-.39,8.53.92,1.34,1.97-.53,4.7,5.22,5.79,1.75-2.23-8.12-16.89-8.65-19.67-.41-2.16,1.64-1.79,2.93-1,2.35,1.45,10.67,17.31,11.95,20.69,2.12,5.59,2.64,9.52,3.38,15.34ZM555.71,165.27c-.25-.23-6.66-.94-6.58.8,3.31.72,5.23,4.12,7.65,6.27l8.65,13.89c.54-2.21-1.11-15.46-2.03-16.2-.62-.5-4.16.22-6.07-1.14-1.67-1.19-1.23-3.27-1.62-3.63ZM669.11,199.68c-1.09-3.28,1.42-13.28.53-15.32-1.42-3.26-7.89-4.31-11.07-3.87l7.46,5c1.25,2.18-1,12.01,3.08,14.2ZM566.39,189.12c.69-1.35-.61-2.56-.94-1.91-.69,1.35.61,2.56.94,1.91ZM537.12,193.92v.96c.62-.32.62-.64,0-.96ZM549.12,195.84l-3.11,2.18-3.6,5.49,6.71-7.67ZM665.28,200.64c-.1-.11-2.36-.62-2.86-.49l2.38,3.37c.84-.03.58-2.77.48-2.88ZM604.8,257.28v-52.8c-1.79.44-1.79,1.51-1.72,3.06.6,13.7-.25,26.91-.25,40.66l1.97,9.07ZM545.75,205.46c-.95.67.52,1.32.98,1.88.95-.63-.45-1.27-.98-1.88ZM548.63,208.34c-.95.67.52,1.32.98,1.88.95-.63-.45-1.27-.98-1.88ZM570.24,224.64v-14.4l-2.98,9.08c-.08,2.33-.23,5.56,2.98,5.32ZM637.44,224.64c1.09,1.07,3.45-.37,3.83-2.4.88-4.63-1.79-6.77-1.93-11.04-1.41-.08-1.69,3.44-1.79,4.43-.16,1.45-.43,8.69-.11,9ZM508.79,264c-.87-7.85,0-18.41-2.59-25.72-.43-1.23-.63-2.81-2.2-3.07,1.53,8.91,1.26,18.51,2.9,27.35.29,1.57-.63,1.66,1.88,1.44ZM592.32,301.44c2.18-14.91,5.77-35.81-.79-49.61-2.94-6.2-10.69-15-17.45-16.63v21.6c0,.35.99,1.55,1.11,2.25,4.01-.26,6.77.75,10.4,2.06-2.37-3.84-7.33-4.23-10.55-7.2,10.23-2.21,14.64,7.43,16.31,15.84l-14.9-9.57c-1.95-.28-1.23.09-1.41,1.4-.79,5.59,2.93,30.64,5.3,36,1.58,3.58,4.7,8.98,9.43,7.73,1.05-.28.52-1.85.63-1.95.55-.5,1.46,1.24,1.92-1.92ZM616.32,301.44c.23.87.67,1.29.96,1.92.21.45-.59,1.7.59,1.98,7.47,1.76,11.29-9.9,12.43-15.37.71-3.4,3.34-27.8,2.34-28.85-5.69.72-11.01,4.64-14.88,8.63-1.61-1.14.79-3.17,1.09-4.5.24-1.09-.58-2.21.08-3.84,1.11-2.76,6.68-7.01,9.62-7.75,1.36-.34,4.87-.05,5.05-.23.83-.83,1.1-15.79.96-18.23-8.63,2.01-18.97,15.65-20.69,23.94-1.97,9.47-.13,32.69,2.46,42.3ZM704.64,235.21c-2.68-.47-1.61.57-2.16,2.1-2.81,7.76-2.44,18.43-2.63,26.69,1.31.24,1.45-1.71,1.65-2.64,1.83-8.43.71-17.71,3.13-26.15ZM572.15,285.12c.88-5.01-.84-10.16-.99-14.84-.29-8.81,1.02-19.5.07-27.91-.16-1.44-.2-2.96-1.95-3.32v33.11s2.86,12.97,2.86,12.97ZM636.48,247.2c-.84,10.09,0,22.28,0,32.64,0,.73-2.74,5.69-.01,6.23.65-3.01,1.54-6.05,1.92-9.13.74-6.11-.18-12.59-.03-18.18.16-6.1,1.94-13.21.99-19.72-1.17-1.55-1.75,0-1.91,1.42-.25,2.19-.82,5.01-.96,6.73ZM633.6,255.36c-1.56-1.65-12.35,5.73-13.42,8.16,2.1-.29,2.91-2.57,5.19-3.44s6.09-.54,7.29-1.35c1.07-.72,1.32-2.97.94-3.37ZM609.6,289.92v-30.72h-.95c.96,2.06-.97,5.2-.97,6.24v19.2c0,.85,1.79,3.48.97,5.28h.95ZM600,288v-27.84h-.96v27.84h.96ZM695.99,276.47l.96-9.59c-1.26.47-1.69,5.11-1.79,6.36-.09,1.08-.89,3.45.83,3.23ZM513.59,277.44l-1.9-8.63c.11,2.34-.42,7.18,1.9,8.63ZM551.37,275.19c-.88-.74-1.54-3.65-3.19-3.04,6.81,11.31,19.11,15.89,23.47,29.32l2.42,10.53c1.21-10.13-3.65-20.2-10.51-27.39-3.16-3.32-8.71-6.5-12.19-9.41ZM660.48,271.69c-1.8-.42-2.28,1-3.36,1.91-12.19,10.22-24.99,21.78-23.51,39.36l4.06-13.68c4.48-11.48,16.75-17.27,22.81-27.58ZM519.35,300.47l-9.58-23.03c.22,4.53,1.72,9.23,3.37,13.42,1.32,3.36,3.27,7.52,6.22,9.61ZM696.97,278.41c-.97,7.95-5.78,14.62-8.18,22.05,4.26-4.08,8.07-12,9.05-17.83.16-.95.85-4.42-.87-4.23ZM682.23,299.19c.49-.46,2.17-2.71,1.78-3.49-9,7.88-21.86,10.29-32.8,15.2-1.08.48-3.33.7-3.21,2.05,6.47-1.46,14.05-3.7,20.14-6.25,3.29-1.38,11.79-5.32,14.09-7.51ZM556.8,311.99c-3.9-4.48-11.03-4.93-16.3-7.21s-10.57-5.88-16.32-7.67c8.71,8.48,21.29,11.24,32.62,14.88ZM599.04,317.28c.56-4.97-.41-10.77,0-15.84h-.95c.37,1.2-.97,2.78-.97,3.36v16.8h.95c-.54-1.63.86-3.31.97-4.32ZM610.55,301.44c-1.17-1.57-1.74.02-1.92,1.42-.57,4.47.24,12.54,1.22,17.05.2.93.34,2.88,1.65,2.64l-.96-21.11ZM538.56,308.17c-.47-.44-10.75-2.83-12.48-2.88,2.37,2.89,7.76,4.01,11.27,4.58,1.95.32,1.69-1.26,1.22-1.7ZM682.56,305.29c-4.2.62-10.79,1.28-13.44,4.78,4.24-.86,10.46-1.43,13.44-4.78ZM559.68,312.01c-1.35-.69-2.56.61-1.91.94,1.35.69,2.56-.61,1.91-.94ZM566.87,312.98c-.95.67.52,1.32.98,1.88.95-.63-.45-1.27-.98-1.88ZM638.4,316.8c1.39,1.39,3.03-2.61,3.82-3.36-1.41-.45-4.93,2.25-3.82,3.36ZM618.24,336v-13.92c0-1.51,2.01-5.58.95-8.16h-.94c.37,1.19-.97,2.78-.97,3.36v18.72h.96ZM627.83,377.28c-.4-20.7-2.79-41.83.96-62.4-1.67.41-2.13,2.22-2.61,3.62-4.18,12.15-1.52,39.89-.25,53.49.11,1.18.35,5.13,1.9,5.29ZM568.79,315.86c-.95.67.52,1.32.98,1.88.95-.63-.45-1.27-.98-1.88ZM581.75,376.32c.57-16.16,3.34-33.28,1.96-49.47-.28-3.25-1.07-9.04-3.86-11.01,4.33,18.96.17,38.17.95,57.13.05,1.17-.72,3.57.95,3.35ZM591.36,334.08v-13.92c0-.24-.94-4.6-1.91-4.32l-.06,8.2,1.97,10.03ZM638.4,317.77c-1.48-1.8-2.07,1.36-2.38,1.89-2.26,3.83-3.43,8.17-4.33,12.5,2.74.5,1.57-.68,2.16-2.11.65-1.57,4.97-11.77,4.56-12.28ZM573.13,368.64c2.98-1.66,2.07-7.95,1.95-11.08-.44-11.2-2.15-22.43-8.28-32.04-.68-1.07-5.58-8.31-7.12-6.79,1.2,4.16,4.79,7.07,6.87,10.88,6.43,11.74,6.28,25.97,6.57,39.04ZM572.15,318.72c-.41-.39-2.61-.33-1.81,1.32l5.65,12.11c.64-2.25-2.72-12.34-3.84-13.43ZM633.6,348c-.66,6.53.49,14,0,20.64h.95c-.59-1.51.97-3.61.97-4.32v-14.4c0-4.18,3.35-14.68,5.3-18.7l8.14-12.49c-1.81-1.84-8.44,8.33-9.13,9.58-2.82,5.11-5.64,13.92-6.22,19.7ZM606.72,348.48c.25-7.18-.89-14-.96-21.12h-2.87c.8,1.79-.96,4.41-.96,5.28v19.68c1.68.22.92-2.17.96-3.35.22-5.65.74-11.18.97-16.81,1.68-.22.9,2.18.95,3.35.17,4.24-.36,8.83,0,12.97.09,1.07.58,3.16,1.44,3.85.9-.02.45-2.84.48-3.85ZM594.23,391.67l2.88-19.68.96-39.83-2.86,21.6c1.18,10.7-1.33,21.12-1.97,31.63-.08,1.29-.71,6,.99,6.28ZM616.31,401.28c.46-8.86-2.19-17.63-2.86-26.41-.99-13-.35-26.42-1.89-39.39-.17-1.44-.19-2.96-1.95-3.32,1.19,21.56.97,43.23,5.11,64.48.25,1.26.11,4.65,1.59,4.63ZM631.67,411.84l-7.2-24.95-5.26-30.73c-.48,15,1.84,30.29,6.95,44.39,1.29,3.57,2.85,8.57,5.51,11.28ZM589.43,357.12c-2.44-3.21-1.92,7.12-2.04,8.03-.95,7.48-2.23,16.58-4,23.84s-5.76,14.3-6.43,21.88c1.43-.24,1.85-1.76,2.39-2.88,7.19-14.98,9.78-34.43,10.08-50.87ZM601.92,367.2c-.78,6.73.57,14.72,0,21.6l2.87-23.04.02,14.87,1.91,11.05v-20.64c0-1.51-1.98-5.56-.96-8.17-2.77-1.04-3.53,1.67-3.84,4.33ZM571.21,378.25c-1,4.11-2.02,8.26-3.68,12.17-2.24,5.3-5.88,8.74-8.34,13.73,7.13-3.93,11.86-13.85,12.87-21.69.13-1.02.91-4.38-.84-4.21ZM645.12,399.36l-8.63-20.15c-.19,1.97.03,3.87.42,5.81.29,1.43,5.39,17.24,8.21,14.34ZM594.24,392.65c-2.9-.47-1.53.72-1.94,2.33-.75,2.99-1.17,6.08-.93,9.18l2.87-11.51ZM556.79,393.61l-15.81,7.69-20.66,4.77c7.67.46,15.39-1.19,22.58-3.81,4.94-1.8,10.67-4.52,13.89-8.65ZM688.32,405.13c-13.38.17-24.78-5.61-36.46-11.06,7.42,7.63,18.1,10.32,28.32,11.99l8.14-.94ZM586.55,408.95l2.88-13.43c-1.47.84-2.19,4.85-2.59,6.52-.31,1.27-2.12,6.52-.3,6.91ZM618.72,395.52v.96c.62-.32.62-.64,0-.96ZM567.34,419.51c.52-.46,5.63-10.93,6.24-12.49,1.18-3.03,2.49-6.26,2.41-9.58-5.3,5.44-5.53,14.62-10.51,20.69-.7,1.62,1.31,1.87,1.86,1.38ZM623.03,409.92c.04-2.89-.79-5.7-1.66-8.41-.37-1.16-.71-4.06-2.16-4.06-.04,2.89.79,5.7,1.66,8.41.37,1.16.71,4.06,2.16,4.06ZM632.65,397.44c.38,8.65,5.02,17.82,11.04,23.98-3.77-6.46-5.48-14.51-8.65-21.1-.54-1.12-.95-2.64-2.39-2.88ZM601.91,465.6c.19-12.95-.2-25.95-.03-38.91.03-2.04.96-3.92.99-5.73.13-6.91.46-13.97-1.43-20.64l-1.48,54.29,1.95,11ZM606.71,466.55c3.86-21.91-.25-44.1.96-66.23-2.14.57-1.83,2.59-1.96,4.27-.84,10.58.89,21.26,1.06,31.68.12,7.2.27,15.01,0,22.17-.09,2.23-2.28,6.98-.05,8.11ZM645.13,401.27c.18.19,3.93,2.07,4.77,2.42-1.26-1.08-3.16-4.12-4.78-3.36.05.31-.13.8,0,.94ZM547.69,404.18l-1.43,1.43c-.02,1.01,2.4-.57,1.43-1.43ZM690.23,411.85c-10.24-2.41-20.77-3.67-30.69-7.22,6.5,5.71,19,7.04,27.63,7.89,1.06.1,3.26,1.14,3.07-.67ZM544.8,406.08v.96c.62-.32.62-.64,0-.96ZM509.76,407.05c-9.05-.04-19.05.37-27.85,2.39-1.06.24-3.1,0-2.86,1.43,8.81-.73,18.61-.64,27.27-2,.99-.16,3.59-.38,3.44-1.82ZM543.36,407.05c-6.32,1.15-12.99,1.97-19.25,3.3-1.46.31-5.3.79-5.71,2.44,6.7-1.31,14.66-1.58,21.15-3.31,1.42-.38,3.42-.74,3.8-2.43ZM728.63,409.93c-9.9-1.29-19.68-3.65-29.75-2.88-.19,1.39,2.61,1.47,3.62,1.64,2.83.48,6.45.92,9.34,1.23,3.9.41,9.51.89,13.4,1.01,1.07.03,3.64.6,3.39-.99ZM563.52,410.89c-28.29,6.2-53.69,4.61-73.89,28.34-2.54,2.98-14.37,18.53-15.38,21.11-1.74,4.45,8.03-1.58,9.08-2.44,2.05-1.68,20.96-25.99,23.54-23.01s-7.7,8.99-9.64,10.99c-11.6,11.96-15.79,30.59-22.03,45.64,14.87-5.34,15.59-24.18,24.02-35.01,3-3.85,11.74-12.1,16.27-13.49,2.14-.66,4.53-1.39,3.86,1.45-23.02,9.66-25.77,32.01-29.75,53.77,3.51-.24,5.3-4.58,6.58-7.33,3.6-7.73,3.61-16.85,8.78-23.86,2.73-3.71,19.51-16.74,23.74-18.5.82-.34,2.98-.78,1.71.74-5.66,7.78-20.44,14.24-24.53,22.52-1.11,2.25-5.53,21.75-4.75,22.6,6.79-1.78,7.22-10.66,9.7-15.73,5.02-10.27,30.03-24.85,40.97-28.15,6.11-1.84,17.08-5.34,10.6,4.84-4.24,6.67-14.07,7.94-19.53,14.07-2.99,3.35-4.82,8.01-5.26,12.49l14.1-10.37c20.73-10.81,36.58-16.52,38.68-42.92.44-5.49,2.1-15.14-5.48-12.19-6.86,2.67-15.66,11.61-24.98,15.34-12.03,4.82-19.77,2.37-30.22,5.3-2.1.59-14.7,6.97-7.49.19,7.99-7.52,23.69-5.18,32.01-11.19,4.32-3.12,8.88-9.73,9.29-15.18ZM734.4,461.75c-11.29-17.96-22.33-34.33-43.22-41.73l-47.01-9.14c2.2,7.3,7.72,15.49,15.14,17.97,5.78,1.92,24.06,3.78,27.6,8.88,3.93,5.65-4.87.6-6.01.25-8.13-2.54-12.2-1.35-19.84-2.24-7.23-.84-17.59-5.95-23.92-9.68-12.05-7.1-21.18-21.13-18.89,4.49,3.02,33.75,31.52,30.82,50.4,51.37,2.28.94,1.4-3.04,1.19-4.08-2.99-14.83-20.96-14.37-24.96-24-3.47-8.35,3.32-5.47,8.87-4.07,10.62,2.68,37.01,17.29,42.69,26.43,3.41,5.48,3.24,15.87,10.6,19.16,1.15-.63.22-2.82.04-3.88-.72-4.19-2.69-15.68-4.14-18.9-3.13-6.97-19.63-16.66-25.18-22.83-2.11-4.17,7.78,2.77,8.37,3.16,4.32,2.9,14.21,9.82,17.01,13.71,6.81,9.47,4.99,23.81,14.47,31.61-.13-7.33-2.03-16.61-4.02-23.82-4.39-15.98-10.02-20.68-23.36-29.47-1.12-.73-2.48.24-1.9-2.37,6.79-.34,15.59,7.45,19.69,12.46,9.09,11.11,9.82,29.36,23.99,36.49.97-2.07-.73-5.16-1.43-7.21-3.74-10.94-9.43-26.45-16.8-35.04-2-2.33-13.23-11.64-12.97-12.93.73-3.58,6.69,1.99,7.69,2.85,8.47,7.27,13.95,21.5,25.91,22.56ZM576.48,411.84v.96c.62-.32.62-.64,0-.96ZM513.12,413.76v.96c.62-.32.62-.64,0-.96ZM694.09,414.71l10.53,4.34c-1.97-2.4-5.1-3.57-7.95-4.52-.87-.29-2.73-1.77-2.58.18ZM511.2,414.72v.96c.62-.32.62-.64,0-.96ZM509.28,415.68v.96c.62-.32.62-.64,0-.96ZM507.36,416.64v.96c.62-.32.62-.64,0-.96ZM505.44,417.6v.96c.62-.32.62-.64,0-.96ZM706.08,419.52v.96c.62-.32.62-.64,0-.96ZM564.96,420.48v.96c.62-.32.62-.64,0-.96ZM597.11,426.24c-2.51-.22-1.59-.13-1.88,1.44-1.65,8.85-2.6,17.74-5.32,26.37,6.05-7.46,6.92-18.46,7.2-27.82ZM618.23,453.12c-2.66-7.78-3.25-16.12-5.29-23.99-.28-1.09.06-3.12-1.41-2.89-.1,8.72.53,20.23,6.7,26.88ZM563.53,470.4c.71.59,17.55-7.34,15.34-9.6-4.56,2.23-9.1,4.61-13.45,7.22-.52.31-3.7.88-1.89,2.38ZM644.16,469.43c-4.15-3.7-10.03-6.39-15.34-8.16,3.75,4.49,9.46,7.5,15.34,8.16ZM602.87,479.04c.48-3.99-1.42-3.99-.94,0h.94Z"/>
  <path class="cls-1" d="M524.64,591.36c21.2,2.15,34.83,18.17,18.22,36.46l-10.05,5.77c17.01,2,32.9,9.67,31.66,29.28-1.56,24.68-28.68,28.55-48.51,28.38-9.77-.09-20.48-3.57-30.18-1,.13-4.3,2.51-6.39,2.91-11,2.27-26.02-1.42-55.84-.46-82.17l-3.41-5.71c12.77.94,27.28-1.27,39.84,0ZM499.2,632.64h18.72c.92,0,8.41-2.14,9.79-2.69,14.15-5.62,17.05-28.35.98-34.01-.98-.34-6.39-1.7-6.94-1.7h-22.56v38.4ZM499.2,686.4c17.14,2.13,47.3,3.75,53.3-17.26,3.89-13.62-.92-25.72-14.63-30.52-2.66-.93-11.79-3.09-14.19-3.09h-24.48v50.88Z"/>
  <path class="cls-1" d="M729.6,678.72v-75.36c0-.33-2.09-5.58-2.46-6.18-1.68-2.74-5.11-2.19-4.26-5.82h15.84c.51,0,1.98,2.08,1.43,2.86-.15.21-2.74.75-4.28,2.94-1.36,1.93-2.18,4.81-2.44,7.16,1.58,23.56-2.09,49.77-.04,73,.22,2.45.74,5.45,2.08,7.52,1.54,2.37,4.64,2.5,4.68,5.4h-16.8l-75.36-88.32v72.48c0,1.22,1.94,8.45,2.68,9.8,1.62,2.97,4.67,2.92,5,6.04h-17.28c-.74-3.76,2.89-3.12,4.58-6.46.95-1.88,1.91-6.25,2.13-8.43,1.68-17.15,1.26-48.78.05-66.28-.3-4.33-.91-9.29-3.48-12.84-1.14-1.59-4.22-1.47-3.29-4.87h15.84c25.65,28.63,49.23,59.28,75.36,87.36Z"/>
  <path class="cls-1" d="M283.2,659.53c-11.16,26.08,20.46,34.02,39.36,25.43,8.21-3.73,13.25-11.72,10.05-20.61-6.83-18.99-51.99-24.41-60.82-44.77-14.27-32.91,52.2-34.28,66.18-21.06,8.39,7.94-2.11,19.63-8.18,11.06-2.73-3.86,0-8.28-5.34-11.94-11.17-7.64-51.62-5.2-42.05,17.09,8.29,19.3,62.32,23.75,62.32,51.99,0,27.28-45.42,28.21-63.41,20.14-14.73-6.6-16.15-26.9,1.9-27.34Z"/>
  <path class="cls-1" d="M894.71,658.56c.69,2.8-1.52,4.89-1.86,7.25-4.88,34.13,64.44,26.08,51.03-3.13-6.75-14.69-42.6-22.73-55.4-35.8-11.24-11.48-7.83-27.7,7.41-32.9,12-4.1,44.02-4.93,53.58,4.56,8.19,8.13-1.76,19.01-7.74,11.58-3.92-4.87.77-10.16-9.05-13.99-11.96-4.66-44.53-3.35-39.43,16.39,5.41,20.93,62.94,25.15,62.98,54.21.04,27.3-45.65,28.4-63.44,20.16-14.54-6.74-15.49-26.13,1.91-28.31Z"/>
  <path class="cls-1" d="M762.24,690.24c-.92-4.49,1.79-1.91,4.38-3.77,1.05-.75,3.37-4.97,4.14-6.43l38.42-88.09c.76-1.01,8.99-1.07,9.8,0l39.38,90.01c.81,1.58,1.76,3.45,3.22,4.49,2.13,1.51,4.18-.25,3.38,3.78h-19.2c-.31-1.93,1.68-2.54,1.95-4.38.75-5.17-11.98-25.77-13.37-32.47-15.7-1.08-32.17-.82-48.12-.13-1.75,4.62-15.47,31.54-13.28,33.98.5.56,4.45.02,3.7,3h-14.4ZM832.32,648.96l-23.03-49.92-21.13,49.92h44.16Z"/>
  <path class="cls-1" d="M360.96,690.24c-.3-3.18,3.88-2.67,5.33-4.75,15.52-29.96,27.37-61.99,41.81-92.59,1.9-2.49,8.49-2.38,10.36,0l38.61,88.1c1.08,5.07,6.31,5.34,7.56,9.24h-19.2c-1.21-2.66,1.91-2.94,1.98-3.46.59-4.46-12.66-27.44-14.44-33.51-15.95-.69-32.42-.94-48.12.13l-13.18,30.85c-.77,4.43,5.02,1.31,3.68,6h-14.4ZM386.88,648.96h44.16l-22.55-48.97-21.61,48.97Z"/>
  <path class="cls-2" d="M462.72,220.8c5.91-2.61,12.62-5.16,19.2-4.79.7,4.28-8.23,1.78-7.67,5.75,2.88-.17,11.83-3.73,13.42-.46.94,1.91-2.03,1.46-3.06,1.7-6.17,1.43-12.78,1.99-17.09,7.39,9.74,2.72,19.04,15.94,16.32,25.93,4.04-1.24,7.36,1.56,10.56,1.93-.59-11.23-2.03-15.39-9.6-23.04-.64-.64-1.28-1.27-1.92-1.92,12.3-1.04,15.13,15.52,14.4,24.97-.94-.06-1.94.1-2.88,0l9.6,18.24c.01.31.02.65,0,.96-.1,1.27-1.04,5.14-2.9,3.38-1.69-1.61-3.45-9.47-4.96-12.32-.84-1.59-2.4-4.72-4.62-4.49.53,2.67,6.99,12.27,4.79,14.4-.1.1-2.72.08-2.84-.02-.33-.27-1.84-5.83-3.11-7.95-1.98-3.31-4.72-6.63-7.48-9.31l7.38,16.97c-2.92,6.66,5.34.51,7.01,2.23,2.72,2.81-5.03,3.75-7.06,4.94-2.48,1.46-6.86,6.97-6.45,9.85.08.59,1.97.57,2.04,1.08.26,2-2.56,4.84-3.39,7.18-1.48,4.16-2.59,9.06-3.38,13.42-4.67.37-2.04-8.72-1.26-11.34s3.7-6.65,3.87-8.45c.15-1.58-.92-3.12-.52-5.4.78-4.43,5.6-6.69,6.55-8.9,1.3-3.03-3.33-.45-4.66,1.11-2.3,2.72-5.68,13.58-6.57,17.43-1.19,5.15-1.07,12.54-2.37,16.83-.39,1.29-1.39,1.86-2.71,1.61v-13.92c0-.64,2.79-10.25,3.26-12.01,1.44-5.4,2.42-9.61,6.82-13.43,1.32-1.15,4.9-2.13,5.21-3.45.21-.88-4.47-10.56-6.66-8.53l-.45,3.33c-2.37-1.95-4.53-6.81-7.26-8.11-1.27-.61-10.41-3.22-11.73-3.16-4.87.2-3.25,2.76-4.78,4.33-3.81,3.92-7.56,3.1-10.62,10.99-.82,2.12-2.01,13.52-5.47,10.36-.36-.33.81-7.87.96-9.59.37-1.4.63-2.26.96-3.84.16-.13,1.23.2,1.64-.24,1.51-1.64,7.63-8.41,6.04-10.31-1.86-1.05-2.86,3.93-4.79,1.91-1.07-1.12.76-5.77,1.9-7.21,3.59-4.59,17.98-9.33,18.25-1.43-2.96.08-5.94-.28-8.89.27-1.67.31-3.17.4-2.62,2.61,3.6-1.07,7.25-1.25,10.99-.91,1.23.11,2.18,1.43,3.08,1.58,2.7.45,4.75-2.02,7.99,2.21.91-4.7-4.91-3.54-3.83-7.68,3.48-.35,4.59,1.46,4.8-1.92-3.54-1.44-1.59-1.79-3.83-4.33-2.98-3.39-6.3-5.14-9.34-7.95-1.03-.95-2.68-1-2.19-3.08,8.11-.33,15.85,7.33,15.36,15.35.97.39,5.5,2.17,5.76,1.91,1.19-7.36-15.85-20.07-16.15-23.67-.25-2.99,6.96-6.7,5.59-8-5.14-.94-10.57,10.87-12.02,11.49-3.13,1.34-2.66-2.46-2.38-4.78,3.07-3.03,3.32-3.73,5.76-7.68ZM477.59,255.38c-.95.67.52,1.32.98,1.88.95-.63-.45-1.27-.98-1.88ZM480.48,258.24v.96c.62-.32.62-.64,0-.96ZM490.56,262.08c.98-.96-1.87-3.85-2.87-2.87s1.87,3.85,2.87,2.87ZM478.07,264.96c.48-3.99-1.42-3.99-.94,0h.94Z"/>
  <path class="cls-2" d="M456.96,228.48c-4.12,4.07-3.98,13.58-4.81,14.4-1.16,1.15-1.71-.16-2.15-1.19-3.95-9.16,8.75-25.58,17.52-28.57.4.4-4.11,6.57-4.8,7.68-3.74,1.65-5.25,3.45-5.76,7.68Z"/>
  <path class="cls-2" d="M437.76,289.92c-6.03.48-1.97-15.17.97-18.71,4.21-5.08,3.74-2.75,2.87,1.43-1.6,1.31-.81,2.06-.96,3.84-1.1,4.22-1.53,9.71-2.88,13.44.55-.04,1.74-1.34,2.87-.96.29,4.06-3.79,6.49-4.31,10.56l-5.99,28.57c-1.78,4.34-3.18-2.43-3.06-4.91.15-3.16,4.93-23.68,6.17-26.55,1.03-2.4,3.59-4.7,4.32-6.72Z"/>
  <path class="cls-2" d="M730.56,225.6l-9.59-4.31c3.83-3.12,13.56.43,17.21,2.93,8.69,5.93,3.44,6.54-.46,10.94-2.08,2.34-13.05,16.1-10.99,18.28.97-.2,5.58-1.67,5.75-1.92.12-.17-1.25-2.16-.8-4.06,1.01-4.25,11.02-12.97,16.16-11.29.44,2-1.03,2.18-2.18,3.09-3.98,3.15-11.14,8.54-13.17,12.27-.18.33.36,1.62-.02,2.16-.83,1.18-2.19.2-1.9,1.67,14.3-4.97,1.26,2.09.96,7.69,2.16-.65,4.53-5.19,6.34-5.53,1.02-.19,2.49.82,3.63.64,4.03-.67,6.79-2.5,11.13-.87.72-4.04-8.63-.91-9.6-1.92-1.92-1.99,1.56-3.5,3.44-3.73,5.58-.69,12.16.32,15.62,5.32,4.58,6.6,1.7,10.42-3.69,3.22-.96,4.73,1.98,6.24,4.82,9.14.2.21,2.29,5.02,2.87,1.67.24-1.38-.53-3.36,1.93-1.72,3.16,2.1,5.94,12.57,5.78,16.32-.19,4.4-3,4.52-2.92,4.81.6,2.01,3.58,5.26,4.74,8.71,1.39,4.16,1.4,8.14,2.22,12.18,1.15,5.66,4.08,10.47,2.63,17.05-.78-.12-2.67.19-2.87,0-1.03-.97-3.36-24.43-5.29-27.85l-5.27-10.1,2.86-.46-.96-10.55c-2.06-.46.32,10.85-2.86,7.67-.83-.83-2.59-11.1-4.97-14.72s-5.89-5.11-8.53-7.82c-1.64-1.68.06-4.62-5.95-4.1-3.75.32-7.79,4.92-8.88.73l-8.66,10.55c-3.62,1.52.98-7.21.98-7.65l-9.12,12.95c5.86,1.85,10.3,7.16,11.81,13.12.71,2.82.28,5.42.88,7.76.96,3.75,7.27,19.31,2.16,21.81-1.87.92-1.51-1.99-1.72-3.04-1.69-8.42-3.8-28.27-10.23-33.94-1.87-1.64-4.17-2.06-5.78-3.87l6.7-16.74c-3.87.95-10.12,15.93-11.03,16.32-3.87,1.62-1.69-4.05-.76-6.52.74-1.97,6.47-10.32,6.04-10.75-1.55-1.56-5.32,5.08-5.92,6.07-2.6,4.34-4.35,9.2-5.61,14.08l-2.87-5.76c.09-.47-.15-1.03,0-1.43.19-.47.49-.54.95-.49.16.02.52.83.94.97-.41-4.95,7.65-17.77,12.07-18.29,2.44-.29,5.64,2.29,7.15-1.41.33-.81-1.65-.08-1.93-1.09-1.94-7.18,8.83-21.96,16.33-23.39-.8-2.98-4.66-2.5-5.76-2.87-1.19-.4-3.35-1.83-3.84-1.92ZM728.65,256.32l-.5,2.86c1.47-.98,2.39-3.03.5-2.86ZM757.44,259.19c-.51-1.91-2.05-2.16-3.84-1.9.51,1.91,2.05,2.16,3.84,1.9ZM720.96,259.21c-1.35-.69-2.56.61-1.91.94,1.35.69,2.56-.61,1.91-.94ZM767.99,273.6h-1.91c-.52.53,1.38,4.99,1.91,3.83v-3.83Z"/>
  <path class="cls-1" d="M611.52,592.32c.55,2.72-1.85,1.54-2.99,4.2-.8,1.87-.76,3.85-.89,5.84-1.75,25.52,1.39,53.02.04,78.76-.31,3.94,3.02,5.81,3.84,9.12h-17.28c1.01-3.37,2.54-3.1,2.94-7.14,2.67-27.33-1.59-59.98-.7-87.71-.64-1.63-3.04-.45-2.23-3.07h17.28Z"/>
  <path class="cls-2" d="M506.88,185.28c-2.43.54-4.51-4.8-6.23-6.73-3.08-3.45-6.08-6.47-9.13-10.07s-5.36-1.37-2.93-8.7c1.36-4.11,9.75-15.2,13-9.06,3.54-3.98,9.32-1.82,9.12-8.63-1.31-1.22-12.95,8.88-10.41,2.54.85-2.12,9.33-8.34,11.68-9.43,1.76-.82,6.07-3.07,7.36-.3,1.05,2.26-6.24,1.99-3.82,4.31.19.18,3.05-2.16,4.57-2.63s9.12-1.8,9.82-1.21c.48,3.92-6.46,3.69-7.53,4.97-.44.53,0,1.43-.14,1.74-4.04,1.78-9.95,2.35-10.55,8.64,7.59-.8,7.76-2.57,10.55-8.64,1.83-.8,2.35-1.79,3.24-2.07,1.56-.5,6.61-1.93,7.83-1.81,2.41.23,2.03,2.9,2.93,2.99,2.28.23,8.35-5.56,8.09,1.85-6.83.22-12.17,5.35-17.76,8.65-2.46-3.51,2.58-5.47,3.34-7.22,1.56-3.6-5.89,1.39-6.79,2.83-.94,1.51-.64,3.73-1.05,4.21-.28.34-6.28,1.29-8.44,2.61-2.95,1.8-8.59,10.66-10.14,11-1.19.26-1.69-.77-2.39-1.45l.42-1.46,8.22-11.48c-5.48-1.23-12.82,13.11-13.91,13.46-.45.14-2.41.31-2.41-.51l1.94-8.14c-.4,2.68-4.36,6.31-3.93,8.98.04.28,4.32,3.28,4.59,3.35,1.43.36,3.25-.97,5.33-.66,3.32.5,7.13,5.49,10.31,4.18-7.01-6.46-4.18-8.43,3.2-3.2,5.31,3.76,9.89,10.58,10.24,17.11-.94-.05-1.94.11-2.88,0,8.67,18.06-.95,9.82-3.83-.96,1.34-.11,2.58.81,3.83.96-1.21-2.52-2.25-7.36-5.29-8.63-3.78-1.58,3.83,9.16-1.87,6.68-1.39-.61-9.03-11.26-13.49-11.46,2.43,5.59,5.24,6.68,5.29,13.42ZM514.56,139.21h-2.87s0,1.91,0,1.91c1.32.3,2.55-.52,2.87-1.91ZM532.8,142.09c-1.35-.69-2.56.61-1.91.94,1.35.69,2.56-.61,1.91-.94Z"/>
  <path class="cls-1" d="M595.97,547.95c.39-.23.85-2.17,2.13-3.12,9.6-7.17,10.76,3.33,18.71,3.41,14.06.14,29.99-12.13,42.03-9.47,2.33.52,6.24,3.69,1.59,3.22-15.16-1.53-24.87,7.98-39.8,10-1.39.19-5.98-.24-6.22.02-.45.47.82,7.71-4.88,10.95-5.03,2.87-12.22,1.07-14.55-4.48-.87-2.08-.23-5.68-2.29-6.35-17.11,1.38-30.5-14.17-47.39-9.73.52-4.93,8.37-4.14,11.89-3.73,8.15.97,31.87,13.39,38.79,9.28Z"/>
  <path class="cls-2" d="M644.16,306.24c-2.47-3.07,4.54-15.73,6.39-16.22,1.27-.33,2.92,1.18,4.17.44.47-.28,2.89-4.05,4.31-5.36,4.32-3.97,3.94-2.91,7.77-8.54.95-1.39,3.39-2.99,3.79-3.95.62-1.49-.77-4-.55-6.16.44-4.42,1.98-12.75,6.27-14.94,1.36,3.81-5.04,17.34-3.21,20.02.08.12,2.11.69,2.73,1.11-1.14-4.18-.42-7.96.92-12.05.38-1.17,4.76-11.24,6.77-9.07-.93,6.27-5.4,11.62-4.79,18.24,5.19-.43,2.75-12,6.23-13.44,4.7-1.94.31,5.57.42,8.21.09,2.36,1.93,3.27,2.01,4.73.04.72-1.39.33-1.94,1.18-.79,1.21-5.4,9.24-4.8,9.88,3.37-.4,3.69-4.72,7.21-5.74,1.24-.36,1.88.19,1.41,1.41-1.51,3.88-9.31,10.99-11.04,15.85-3.8.44,1.04-5.37-1.41-5.74-.48,1.18-2.57,7.34-2.91,7.67-.98.96-2,.16-1.92-1.44.19-4.02,2.85-7.36,3.76-10.67.5-1.81-1.33-1.79-1.81-1.33-.84.81-4.23,11.16-5.35,13.43-.68,1.37.22,2.41-2.34,1.92-.56-8.19,4.35-15.1,8.61-21.61-4.43.61-7.51,7.93-9.3,11.81-1.2,2.58-4.55,14.05-5.09,14.6-3.4,3.42-.83-9.27-1.42-9.59-1.74.27-6.16,14.89-8.16,12.47l.97-10.55-5.77,13.43c-.52.17-1.49-.19-1.92,0ZM678.7,277.43c.28-.24,2.22-4.78,1.93-5.75-2.85-.13-5.2,8.56-1.93,5.75ZM676.32,278.4v.96c.62-.32.62-.64,0-.96ZM660,288.96v.96c.62-.32.62-.64,0-.96Z"/>
  <path class="cls-2" d="M564.48,136.32c5.83,1.14,5.88-6.45,8.12-10.6,1.3-2.41,12.99-18.44,15.88-15.31,1.6,1.73-4.87,6.1-6.15,7.76-3.5,4.51-6.31,9.88-9.2,14.81,2.5,1.16,6.47,1.09,8.84,2.41.85.47,3.18,5.29,4.58,3.81,1.48-1.55-6.51-6.38-6.72-7.4-1.32-6.61,16.26-24.98,19.2-22.35l-13.26,16.97-3.08,5.55c7.51,2.8,12.32,9.03,15.6,16.15,1.24,2.7-.54,5.35,3.63,4.53-1,3.52-2.6,6.79-3.57,10.35-1.08,3.99-1.01,12.68-5.07,13.64.22-3.57-.38-7.43.08-10.95.34-2.63,4.48-10.88,3.56-11.92-.35-.4-1.65-.05-1.72-.16-3.1,5.35-4.46,11.24-6.58,16.94-.44,1.17-.5,3.65-2.53,3.21-3.46-.74,1.39-13.55,2.5-15.72,1.27-2.49,3.51-6.81,6.6-4.44-.76-1.16-1.38-10.1-4.33-11.51-3.27-1.56,3.37,9.82-.93,7.66-1.2-.6-11.65-15.16-14.89-12.47l9.19,11.49c1.45,1.67-1.03,4.96-2.46,3.87-.16-.12-.49-2.56-1.49-3.79-5.56-6.81-7.79-6.61-14.57-10.38-1.1-.61-1.62.07-1.23-2.14-.1.57-2.2,1.8-.47,4.8,1.32,2.28,12.15,6.79,10.06,13.44-4.26-.64-5.53-5.72-8.69-8.1-1.41-1.06-5.47-2.29-5.65-2.54-1.22-1.67,4-17.83,4.73-21.04-2.86,2.64-5.16,8.45-6.5,12.21-.79,2.22-1.77,9.53-2.14,9.87-.2.19-2.09-.12-2.87,0-1.07-7.6,2.61-18.71,8.12-24.04,2.46-2.38,4.58-2.23,6.77-3.79,2.98-2.14,4.44-6.74,9.1-5.77.68.59-5.68,7.94-6.53,9.31-3.25,5.3-4.87,9.53-5.95,15.65ZM574.08,136.33c-1.35-.69-2.56.61-1.91.94,1.35.69,2.56-.61,1.91-.94Z"/>
  <path class="cls-2" d="M687.36,527.05c.27,2.5-1.38,2.68-3.3,2.92-10.52,1.29-21.8-4.46-33.57-2.84-5.62.77-11.69,5.71-17.8,7.16-9.75,2.31-25.68,1.57-36.01,1.43-15.77-.21-18.06-.63-32.2-6.28-13.94-5.57-21.9-.17-35,.51-2.02.1-8.15.92-8.21-2.42,12.28-.6,24.6-4.77,36.97-3.37,8.56.97,16.22,7.62,27.96,8.52,8.75.67,24.51.5,33.52.17,12.5-.46,15.4-4.42,25.18-7.46,14.53-4.51,27.81,2.25,42.45,1.66Z"/>
  <path class="cls-2" d="M754.56,212.16l-1.93-3.84-3.83.95c.51-11-1.09-21.69-5.76-31.67,7.28-.16,6.81,11.78,9.13,14.41.89,1.01,2.75.54,3.37,1.62,2.01,3.5,1.25,14.75-.99,18.53.44-.29,3.35.56,4.38-.89,1.31-1.84-.08-8.93.42-11.58,7.25,1.26-1.34,16.14,4.32,18.23,2.53-6.56,6.33,4.79,7.18,3.83.16-.18-.16-1.41.17-1.67,3.35-2.55,6.49,8.58,5.6,11.27l-3.83-2.87c.96,2.59-2.02,2.65-1.85,4.14.41,3.57,3.23,1.94,5.19,3.53,1.27,1.03,2.39,4.49,3.35,6.01s4.1,1.55,2.89,5.51c-2.55.87-1.65-1.4-2.05-1.68-.45-.31-1.84,1.22-3.21-.18-1.57-1.61-2.7-6.4-3.39-8.69-1.98-.49.2,9.82-2.85,6.71-.43-.43-2.6-10.27-3.87-11.51-.66-.65-2.07-.51-1.84,1.35.38,3.01,1.52,5.92.89,9.2-2.35,2.59-5.55-12.52-6.33-14.3-.71-1.62-5.09-9.11-6.14-10.17-2-2.01-6.42-1.9-4.32-5.29,6.34,2.14,4.79-.63,5.27-.95ZM760.31,218.88c-2.23-2.2-2.07,3.28-1.74,4.18.27.74,3.8,3.33,4.62,4.45.17-1.3-2.54-8.29-2.89-8.64ZM767.99,228.48c.3-.34-.14-5.94-1.9-5.75.11,2.63-2.14,5.84,1.9,5.75ZM772.79,227.52c.48-3.99-1.42-3.99-.94,0h.94Z"/>
  <path class="cls-2" d="M427.2,290.88c-.25,1.58-1.15,3.1-.96,4.79,2.87.39,2.84-3.77,5.29-4.79,1.31-.54,1.63.2,1.44,1.44-.44,2.95-3.55,7.69-4.38,11.95-.6,3.06.09,6.6-.62,8.98-.41,1.37-2.25,1.96-2.67,4.04-.65,3.19,2.13,15.62.94,16.78-.23.22-2.22.1-2.93-.42-1.62-1.16.13-4.4-1.85-4.37l.96,9.11c0,.82-2.03.65-2.41.5-1.7-.67-1.52-11.32-1.43-13.45l2.86.96c-.69-4.71,1.46-8.88,1.92-13.43l-4.81.53c-2.27-1.56.04-5.94.03-8.22l2.86,3.84,1.92-12.47-.95,2.88c-2.95,3-4.88-6.72-4.87-9.13s1.86-10.67,4.87-8.15c.48.4-2.22,10.07-.95,12.47l1.18-7.93c.02-1.89,3.08-8.66,5.53-6.46.22.19-.78,4.56-.96,5.75-.11.76-2.62,4.18,0,4.8ZM423.84,311.04v.96c.62-.32.62-.64,0-.96Z"/>
  <path class="cls-2" d="M427.2,286.08c.34-.22,2.3.41,2.74-.08.77-.87-.46-9.04,3.97-8.55-.2,1.93.87,12.61-1.44,12.46-1.11-.07-.81-3.09-2.39-2.85-.48,1.59-.22,4.47-2.89,3.83.17-1.05-.21-4.67,0-4.8Z"/>
  <path class="cls-2" d="M700.8,184.32c.32-4.58,3.91-7.36,4.8-11.52-1.24-1.31-12.33,9.36-12.97,11.51-2.79,1.4-.91-5.03-.35-6.11,1.98-3.8,13.4-12.16,17.53-11.22.93.21.2,1.98,1.07,1.97,5.45-2.17-3.21-12.07-5.71-14.44-1.68-1.59-3.7-2.73-5.63-3.97-1.77-1.13-6.97-1.99-3.53-4.18,1.45-.93,8.27,2.75,10.21,3.11,1.41.26,2.86-1.24,5.13-.23,3.59,1.59,9.82,11.27,9.71,15.43-.02.74-8.45,8.12-10.18,10.03-2.98,3.3-5.7,10.2-10.07,10.57-.01-.31-.02-.65,0-.96ZM715.19,161.28c.69-1.35-.61-2.56-.94-1.91-.69,1.35.61,2.56.94,1.91ZM717.11,162.25c-1.05-1.05-2.96.86-1.91,1.91s2.96-.86,1.91-1.91ZM708,170.88v.96c.62-.32.62-.64,0-.96Z"/>
  <path class="cls-2" d="M616.32,179.52c-2.23.58-2.77-1.92-2.8-3.41-.09-5.3,4.26-16.06,6.46-21.25,3.1-7.28,5.71-5.74.71-14.75-1.43-2.57-3.97-3.89-4.37-6.66l7.19,3.84c1.84-1.33-2.63-3.68-1.43-4.8,2.53-2.37,8.06,7.09,8.81,8.94,1.6,3.91.76,9.5,4.62,8.34-3.52,7.59-9.36,14.5-10.57,23.04-5.38.13-.63-12.16.8-15.05,1.78-3.62,6.67-6.27,3.54-9.9-5.34,7.52-9.37,17.51-12.03,26.38-.38,1.27-1.83,3.48.03,4.34-.33.3-.66.64-.96.96ZM625.9,138.24c-.42-.4-2.6-.32-1.81,1.32l3.74,5.39c.21-1.1-1.6-6.4-1.93-6.71Z"/>
  <path class="cls-2" d="M537.6,542.39c-10.97.95-21.74-2.78-30.21-9.62-2.9-2.34-5.32-5.87-8.17-8.15-9.93-7.95-21.64-6.39-30.71-17.29-3-3.6-4.48-8.17-7.31-11.89-1.03-1.35-9.27-8.59-8.07-9.68,10.39,1.33,12.9,14.22,19.21,20.62,7.18,7.3,16.33,7.4,24.3,12.18,11.5,6.91,12.96,15.07,28.66,19.34,1.2.33,15.27,1.91,12.3,4.49Z"/>
  <path class="cls-2" d="M755.51,484.8c1.55,1.67-6.04,7.39-7.51,9.28-5.13,6.6-7,13.55-14.63,18.97-6.02,4.28-13.7,4.89-19.65,8.19-5,2.77-9.62,9.18-14.96,12.88-8.39,5.83-17.3,9.35-27.73,8.26-.27-1.38.32-2.26,1.63-2.68,3.54-1.15,8.84-1.02,12.98-2.38,12.29-4.02,16.46-12.95,25.56-18.6,6.47-4.01,14.01-4.37,20.61-9.15,8.35-6.04,9.4-13.99,15.49-20.03,1.02-1.01,7.33-5.7,8.19-4.76Z"/>
  <path class="cls-2" d="M458.88,271.68c-.6.23-1.67-.09-2.82.5-4.16,2.13-5.2,7.8-6.64,11.64-1.96,5.27-4.08,3.63-4.07-1.1.02-7.23,8.65-16.16,15.94-16.8s-1.95,3.76-2.22,4.06c-.46.51-.06,1.55-.19,1.7,1.84-.7,12.52-4.88,11.52-.49-2.16,2.18-5.43,2.01-8.02,3.51-7.91,4.6-5.86,13.47-11.01,17.04-4.03,2.79-5.32,1.91-8.65,7.47-.53.89-4.99,9.33-1.62,7.98,5.98-2.39,2.13-7.5,6.71-11.53,2.63-2.32,8.5-2.52,6.26,0-.63.71-5.18,2.35-6.27,4.86-.95,2.18,1.12,4.79.48,5.66-.14.19-2.75.61-4.22,2.05-2.32,2.28-2.33,5.18-3.42,7.62-1.36,3.02-2.54,6.71-3.78,9.18-.7,1.38-.89,2.73-2.93,2.34-2.05-6.35,4.05-13.23,4.83-17.82.31-1.84-1.98-.81-2.06-2.78-.2-5.07,5.34-15.17,10.42-16.64,1.15-.33,3.93-.04,4.09-.2.23-.22-.2-3.89.08-5.2,1.22-5.74,3.88-8.83,7.6-13.04Z"/>
  <path class="cls-2" d="M516.48,347.52c-.26-4.54-.23-13.19.23-17.52.33-3.11,4.99-10.84,4.57-11.27-3.92-4.05-8.75,17.59-9.61,18.23-2.93,2.19-6.22-8.52-3.32-13.41.37-.63,10.94-8.17,11.95-8.33,2.03-.32,2.54,1.19,4.13,1.33,2.17.19,4.91-2.66,4.53,1.21-4.25,1.56-2.3,1.79-3.84,3.84s-6.34,8.84-6.73,11.06c-.09.53,1.72.3,1.93,1.09.71,2.71-.36,7.85.1,11.27.5,3.74,4.26,16.72,3.63,19.15-.28,1.07-2.01,2.15-2.76,1.58-.24-.18-1.6-4.75-1.93-5.76-.27-.82-.6-2.56-.96-3.84-.3-1.06-.8-2.22-.96-2.88-.36-1.87-.62-3.99-.96-5.76Z"/>
  <path class="cls-2" d="M519.36,360c.17,1.21-.11,2.6,0,3.84-2.9,3.23-7.27-12.87-7.42-14.16-.43-3.56-.89-11.16,3.59-9.84-.76,3.04.55,5.49.96,7.68.16,2.79.34,3.25.96,5.76.24,1.25.9,2.51.96,2.88.25,1.59.87,3.19.96,3.84Z"/>
  <path class="cls-2" d="M528.96,317.76c1.93-.71,4.7-1.06,6.72-1.92l-2.87,5.75c4.32-1.12,7.68-6.78,12.47-2.39-22.44,6.73-14.24,25.45-12.94,42.73-1.84,2.12-2.64.37-3.58-1.25-5.09-8.84-4.77-25.69.23-34.48.55-.97,4.16-2.34,2.85-3.63-1.77-1.75-5.76,6.88-6.25,7.7-.73,1.22.19,2.43-2.38,1.89-.18-1.64,1.36-9.81,1.91-10.56.36-.48,3.45.07,3.84-3.84Z"/>
  <path class="cls-2" d="M572.16,184.32c4.68.87,5.43,6.8,9.59,8.64.62-4.55-5.48-8.78-6.7-12.02-1.02-2.7,2.73-1.04,3.89-.05,3.47,2.96,2.82,7.32,3.98,8.97.26.37,3.24,1.33,4.62,2.59,6.12,5.57,9.73,13.74,8.61,22.12-.18,1.32-.51,2.81-1.9,1.42-1.07-1.07-3.6-20.06-10.1-22.07-1.4.74.03,2.48.45,3.39,1.91,4.1,4.4,8.13,3.87,12.92-2.08,2.51-4.46-7.35-4.81-7.67-2.53-2.31-1.49,2.98-.93,4.3-.16,3.4-6.55-6.66-5.79-8.14-1.69-.25-.95,2.18-.73,3.13.5,2.17,1.97,4.09,1.7,6.46l-4.79-2.88c-.33-3.61.11-6.26,0-8.64,1.85-.07,3.78-.34,5.39.89.83.63,2.37,6.01,3.21,1.57l-9.55-12.06c-.07-.94.12-1.96,0-2.88Z"/>
  <path class="cls-2" d="M687.36,128.64l-4.79,4.79c3.85,1.31,8.5-.16,11.74.18,2.86.3,4.93,2.55,7.23,3.42,4.33,1.64,9.78-.04,9.82,7.93l-5.27-2.88-.49,3.84c-2.44.23-3.55-2.57-5.29-3.83-2.55-.64-.96,2.45-1.43,2.87-2.29,2.09-11.36-9.78-15.35-8.63,2.17,2.68,6.41,4.63,8.15,7.67.7,1.22,1.31,3.28-.97,2.89-3.69-.63-9.61-10-15.22-9.39-1.58.17-2.62,2.11-4.44,1.69-.33-2.25,2.34-3.21,3.92-4.23,3.65-2.37,8.44-4.34,12.39-6.32ZM698.88,141.12c1.2-1.13-2.88-4.86-4.79-3.83.45,1.36,3.82,4.74,4.79,3.83Z"/>
  <path class="cls-2" d="M702.73,353.28l.95-1.91c5.5-.36,1.2,7.83,1.94,8.6.21.22,2.58-.1,3.42.93,1.16,1.42-1.61,6.5-.5,7.7.33.36,2.55-.2,2.81.05,1.26,1.21-6.02,13.25-7.46,15.09-.91,1.17-1.11,2.6-3.09,2.18l4.79-24c-.85-.13-6.88,13.74-7.65,7.9-.61-4.69-4.04-.14-3.9-3.6.14-3.65,7.58-13.65,5.81-19.65,3.8-.14,2.87,4.05,2.88,6.71ZM699.83,366.72c.18-.17.54-3.93.96-4.79-.78-1.85-4.81,8.35-.96,4.79ZM708,369.6v.96c.62-.32.62-.64,0-.96Z"/>
  <path class="cls-2" d="M580.8,523.2c-4.16-1.47-7.28-4.58-11.53-6.22-16.6-6.4-32.71,1.38-49.39,2.43-3.84.24-12.96.57-16.35-.05-1.65-.3-2.7-1.03-2.4-2.87,8.72-1.49,17.65-.27,26.38-.98,16.56-1.35,27.6-9.49,44.67-.48,1.13.6,10.42,6.42,8.62,8.17Z"/>
  <path class="cls-2" d="M436.8,260.16c-.32,1.15-1.25,2.53-1.65,4.56-.31,1.58-.05,5.8-.26,6.01-.92.9-5.26-2.59-3.85,4.79l-2.64-1.67-2.14-9.84v12.47c-3.46,1.22-2.24-5.76-3.37-5.76,0,11.07-5.08,4.28-2.7-1.7.44-1.1,1.86-1.17,2.22-1.85.93-1.75,1.16-4.83,2.42-6.06.89-.87,2.54-.66,3.09-1.19,1.18-1.14,1.25-8.82,4.9-6.23.44.31-.47,2.09,1.1,1.67,1.13-4.99,5.06-10.56,10.57-10.55l-6.93,10.85c-1.01,1.33-.42,3.33-.75,4.5.54-2.46,7.72-10.97,10.21-12.35,3.89-2.17,12.32-3.4,11.86,2.75-11.53-8.08-18.28,15.99-19.68,16.32-2.73.63-2.75-5.07-2.39-6.72Z"/>
  <path class="cls-2" d="M782.4,315.36c-.84-4.09-2.31-10.29-3.53-14.71-.49-1.76-4.75-9.19-4.14-9.77,3.04-2.87,6.6,7.03,6.99,7.4.7.66,2.18.04,3.4,1.87,2.26,3.4,2.26,8.86,2.08,12.8l-2.89-2.87c-3.11,1.26,1.03,5.2,1.49,6.67.67,2.13.29,4.44,1.09,6.56.45,1.2,2.26,1.09,2.77,2.98.76,2.83.81,11.1-2,12.57-2.48,1.3-1.11-5.83-1.44-6.71-1.85.77-.39,2.75-3.83,1.92-.77-5.49,1.05-13.63,0-18.72ZM787.19,330.24v-3.83h-.94v3.83h.94Z"/>
  <path class="cls-2" d="M598.07,238.08c-2.55,2.94-4.78-11.2-4.81-12.47l-.95,5.76c-.78-.12-2.67.19-2.87,0-.41-.39-.73-9.91-3.84-10.56v6.71c-.87.1-1.25.15-1.95-.46-.73-.64-7.34-17.07-6.7-17.77,2.03-.72,3.29,2.71,4.3,2.66.62-.03,1.59-1.8,2.77-1.62.35.05,5.33,3.32,5.88,3.76,7.06,5.64,8.66,15.43,8.16,23.99ZM585.12,218.88v.96c.62-.32.62-.64,0-.96Z"/>
  <path class="cls-2" d="M685.44,317.76c.57.34,1.85.88,1.92.96.18.19.24,1.18.96,1.92,3.15,6,3.51,18.5,2.87,25.43-.58,6.34-3.94,13.13-3.84,19.7h-2.87s4.5-33.96,4.5-33.96l-5.96-11.16c-1.9-.31-1.76.39-.95,1.91,1.41,2.63,2.78,3.85,3.29,7.28.17,1.14.4,3.17-1.36,2.31-2.65-1.29-3.99-11.18-11.05-13.43.24,2.2,5.5,7.32,7.22,10.54,4.73,8.89,3.82,19.78.22,29.05-1.74,4.49-5.97,6.66-5.34,1.44.67-5.56,3.46-12.27,3.71-18.44.45-11.23-4.67-19.98-16.35-20.68-.4-.35.66-2.76.96-2.88,1.34-.54,7.86.4,9.6.96-.45-4.2,3.68-.64,6.13-.91,1.01-.11-.53-4.18,6.35-.05Z"/>
  <path class="cls-2" d="M685.44,317.76c-.18-.27-.33-1.82.49-1.93,6.46-.86,7.94,4.87,13.42,6.75,2.23,2.25,1.28,7.16,1.53,10.12-1.12.67-2.07,4.92-3.42,4.25-2-.99-3.69-11.07-5.42-13.79-1.53-2.4-3.31-2.1-3.71-2.52-.32-.61-.06-.93-.96-1.92-.68-.72-1.86-.87-1.92-.96Z"/>
  <path class="cls-2" d="M758.39,242.88c-2.77,3.18-4.14-14.77-7.2-15.35l.48,5.75c-4.67.02-5.5-5.95-9.66-9.05s-9.61-4.25-14.15-6.06c-1.46-.58-2.59.56-2.1-2.16,7.56-1.62,13.62,4.09,20.15,4.32l-4.79-6.24c11.34,3.3,19.04,17.31,17.27,28.79ZM748.79,224.64c.69-1.35-.61-2.56-.94-1.91-.69,1.35.61,2.56.94,1.91Z"/>
  <path class="cls-2" d="M635.52,187.2c-1.77,2.81-5.76,6.4-7.52,9.28-1.61,2.62-5.38,13.27-6,13.69-.84.57-2.99.75-2.75-1.3.36-3.14,5.23-12.52,4.75-13.02-2-2.07-7.24,8.6-7.72,10.03-.74,2.17-1.5,9.78-1.88,10.13-.2.19-2.09-.12-2.87,0-.19-7.3,1.25-13.9,5.78-19.66,1.9-2.41,6.78-5.54,7.7-6.94.87-1.32.98-3.72,2.01-5.42,1.42-2.34,7.5-7.19,5.47-2.21-1.35,3.31-7.03,7.61-6.56,12.15,4.21-2.38,5.43-8.48,10.55-9.6-.22,1.73-.02,1.39-.96,2.88Z"/>
  <path class="cls-2" d="M477.12,194.88c-.83-.18-1.97.14-2.88,0-.75-6.07,3.06-11.46,9.18-12.42,1.76-.27,9.01-.41,10.09.35,1.19.84.66,3.71,1.42,5.3s3.06,3.45,4.09,5.51c1.63,3.24,5.05,17.58,2.02,19.44-4.06,2.5-2.48-4.45-2.91-7.04-.66-4.04-3.44-12.71-6.56-15.3-1.26-1.05-2.82-.54-2.93-.64-1.21-1.21,4.19-5.12-3.13-3.6-4.24.88-3.52,2.63-4.55,3.61,2.42-2.32,7.53,3.01,9.04,4.88s7.8,11.62,3.91,13.35l-8.16-11.97c-.33-1.39-6.92-4.21-4.78-6.26-1.85,1.78-2.42-.26-3.84,4.8,6.17,1.32,13.62,7.66,11.51,14.4l-3.35-3.84c-1.62,5.09-6.31-1.79-9.19-3.32-1.67-.89-6.02.12-3.35-3.46.99-1.33,3.86-.58,4.33-.97.4-.33-.15-2.11.05-2.81Z"/>
  <path class="cls-2" d="M666.24,344.64c2.76-.33,3.45,3.31,3.75,5.37.81,5.6-.51,11.18-.86,16.7,3.01-1.58.08-6.07,4.79-4.8.59,4.11-2.97,18.03-8.15,17.33-.85-.12-.32-1.66-.5-1.96-.49-.8-3.43,6.05-5.74,3.83-.85-.82,6.25-19.51,6.72-22.55v-13.92ZM669.11,369.6c.69-1.35-.61-2.56-.94-1.91-.69,1.35.61,2.56.94,1.91ZM668.15,372.48c.69-1.35-.61-2.56-.94-1.91-.69,1.35.61,2.56.94,1.91Z"/>
  <path class="cls-2" d="M607.68,133.44c.07,2.76,7.73,14.47,5.76,16.31-.22.21-2.23.31-2.95-.59-1.52-1.93-3.93-8.72-5.5-11.59-1.04-1.89-4.98-5.62-4.82-7.34,3.57-6.32,8.92-15.8,15.89-18.66,1-.41,4.59-1.67,5.07-1.16,2.21,2.35-5.39,4.97-7.24,6.67-1.28,1.17-9.19,11.43-9.59,12.57-1.09,3.14,2.03,2.96,3.39,3.79-.02-.64-.01-1.28,0-1.92,6.62-1,13.04,12.5,12.57,17.78-.15,1.7-1.67,1.4-1.94,2.15-2.22,6.05-4.19,12.51-6.09,18.69-.77,2.51-3,14.64-3.6,15.13-.26.21-2.07-.13-2.86,0,.2-11.01,3.6-23.42,8.44-33.31.69-1.41,2.73-2.86,2.92-3.79.14-.72-5.22-11.71-6.12-12.8-1.56-1.88-2.26-1.29-3.32-1.94Z"/>
  <path class="cls-2" d="M505.86,292.88c2.64,4.28-5.27,2.26-7.89,3.01-4.45,1.27-11.93,13.31-13.14,17.58-.9,3.17,5.39-.4,4.77,2.84-7.36,3.73-6.97,13.56-10.36,19.41-4.67,8.06-2.29-5.58-1.21-8.89,1.34-4.09,5.04-7.59,5.8-9.57.68-1.77-1.73-1.21-1.94-2.05-1.09-4.32,4.84-15.58,8.6-18.16,2-1.37,3.64-1.01,4.61-1.63.73-.47.88-2.47,2.14-3.12,1.64-.83,7.98-.46,8.61.57Z"/>
  <path class="cls-2" d="M470.39,326.4c-.06,2.06.17,4.16,0,6.22-.88,9.91-4.45,5.61-10.57,10.55-4.6,3.72-6.34,9.58-10.07,13.93-2.31.44-1.53-1.83-1.2-3.12.5-1.93,3.9-7.13,3.61-7.42-1.63-1.67-2.01,1.24-2.35,1.92-.74,1.52-2.48,9.18-5.33,6.71-.8-.7,4.26-16.65,10.06-16.37.45.02.51,1.97,1.01,2.03,5.77.71,5.4-6.28,7.14-9.2.7-1.18,6.63-6.42,7.7-5.25ZM468.48,336.95c-1.81-2.35.55-4.49-.47-6.71l-4.32,6.71h4.79ZM452.17,345.6c1.91-.51,2.16-2.05,1.9-3.84-1.91.51-2.16,2.05-1.9,3.84Z"/>
  <path class="cls-2" d="M755.52,343.68c1.02-1.08-2.93-3.72-1.91-4.79,2.26-2.38,12.09,12.92,9.59,16.31l-3.83-3.83-.48,5.75c-3.98-3.48-5.4-9.4-9.1-12.99-3.02-2.93-9.75-4.47-10.7-5.62-.66-.81-2.24-11.66-1.81-12.1,2.97-.19,7.78,3.44,8.87,6,.77,1.81.41,4.07,1.23,5.49.25.43,7.55,6.39,8.13,5.78ZM744.96,337.91c.75-.68-3.31-7.3-4.79-7.67-.12,4.48-1.16,8.57,4.79,7.67ZM758.39,349.44c.39-1.25-1.44-4.83-1.9-3.83-.26,1.71.06,3.37,1.9,3.83Z"/>
  <path class="cls-2" d="M748.8,305.28c-1.68-3.94-3.4-2.46-3.86-3.51-1.99-4.53-1.88-14.48-4.89-21.81-.55-1.33-4.86-6.04-1.31-5.41,4.2.75,7.27,9.74,8.16,13.45,1.91.52-.1-8.72,2.85-5.75,2.66,2.68,1.5,15.6,2.04,16.21.28.32,5.92.97,6.6,3.48,1.71,4.22-7.36-1.76-7.66-1.45l-.97,4.8h-.96ZM748.79,294.72v-4.79h-.94v4.79h.94Z"/>
  <path class="cls-2" d="M457.92,305.28l-1.43-4.78c-.42-.02-8.52,5.86-6.21.49,1.68-3.9,6.43-1.19,6.68-1.48.52-.61-2.05-9.86,1.17-15.64,3.75-6.73,1.83,3.62,1.68,5.53-.08,1.02-.6,3.65.99,3.39.3-6.5,2.74-15.26,9.12-18.24,1.26,2.57-1.93,5.13-2.86,7.7-.79,2.16-1.5,4.41-1.98,6.66-.81,3.79-.53,9.91-1.33,12.94-.08.3-3.25,1.44-4.86,3.43h-.96Z"/>
  <path class="cls-2" d="M734.4,364.8c-1.1-.33-1.81.29-3.32-.97-1.26-1.04-1.66-4.4-4.36-3.83.65,1.58-4.08,11.54-5.76,9.6l1.91-7.67-3.85-.5c1.5-6.11,3.53-11.71,2.81-18.15-.12-1.08-3.35-7.51-.41-6.31,3.09,1.26,4.9,9.36,4.34,12.47,1.18.59,1.14-4.12,2.87-1.91.62.8-.7,8.56.15,9.46.47.5,4.78,1.32,5.61,4.93,0,.96,0,1.92,0,2.88ZM725.75,355.2v-3.83h-.94v3.83h.94ZM724.79,358.08c.69-1.35-.61-2.56-.94-1.91-.69,1.35.61,2.56.94,1.91Z"/>
  <path class="cls-1" d="M730.56,225.6c.49.09,2.65,1.52,3.84,1.92,5.26,4.53.34,3.22-1.87,4.34-2.56,1.3-8.6,10.03-10.17,12.9-.6,1.1-5.48,15.86-6.26,8.19-.29-2.87,1.61-5.43,1.98-8.15.68-.7.65-2.05.96-2.88,1.25-1.33,1.91-3.48,2.88-4.8s.81-1.12,1.92-2.88c.63-1,4.45-2.8,4.8-4.79-2.7.1-5.46-.21-8.16-.01-2.1.15-6.63,2.45-3.88-1.96,1.98-3.17,10.71-2.48,13.96-1.88Z"/>
  <path class="cls-2" d="M489.59,150.72c.8.85-3.98,10.58-4.93,11.86-1.23,1.66-5.02,3.48-4.66,4.92,4.74,2.87,9.96,4.09,14.42,7.67,1.68,1.35,10.66,10.28,6.2,12.02l-8.23-8.07c-5.97-3.99-20.69-9.83-12.46-19.14.8-.91,2.13-.43,2.64-.85.46-.38,4.99-10.57,7.01-8.4Z"/>
  <path class="cls-2" d="M747.84,270.72c-.13-.19.33-1.17-.19-1.7-.76-.77-4.26-.12-3.65-3.09,7.69-2.42,20.21,11.13,19.25,17.73-.29,2.01-2.67,3.42-3.88,2.43-.34-.28-1.47-6.04-2.72-8.33-1.91-3.52-2.14-3.25-4.97-5.11-1.9-1.25-.65-1.12-3.84-1.92Z"/>
  <path class="cls-2" d="M747.84,270.72c1.86,2.68,3.19,1.45,3.84,1.92,2.23,1.61,5.16,15.14,5.97,16.1.59.69,3.55,1.03,5.08,2.13,2.59,1.85,5.01,5.15,6.41,7.99.96,1.93,4.72,10.33.3,8.34-.69-.31-5.02-9.33-8.16-12.48.32.32,3.18,8.3,2.87,8.64-1.45,1.58-5.71-5.34-6.73-6.22-1.17-1.01-3.69-1.3-3.82-1.47-.53-.7.7-2.69,1.49-2.85.32-.06,5.95,1.67,6.18,1.9-1.91-1.91-5.87-4.06-6.68-5.51-3.28-5.88-1.98-11.31-9.63-15.14-.85-.43-12.38-3.49-6.27-4.31,3.14-.42,6.13.2,9.14.96Z"/>
  <path class="cls-2" d="M721.62,151.99c1.93,1.79,2.87,6.27,4.07,7.68.9,1.06,2.63.4,3.76,2.22,5.88,9.45-9.44,13.46-15.13,18.19-2.84,2.36-4.49,5.97-7.76,7.11-.04-8.04,9.8-14.68,16.59-17.49,4.03-1.67,5.26,1.06,4.51-5.55-.28-.35-2.15,1.37-2.78.93-1.92-1.35-4.02-11.03-6.8-12.95-1-2.56,2.62-1,3.53-.16Z"/>
  <path class="cls-2" d="M605.76,151.68c-3.63.14-6.59-10.67-8.8-13.76s-6.78-4.35-6.57-7.75c.31-5.05,12.32-22.17,19.21-20.72l-6.69,7.22-9.61,14.3c6.02,3.34,13.51,13.79,12.46,20.71.7-.03,3.31-2.53,2.88.46s-1.97,6.55-2.57,9.93c-1.01,5.7-1.36,12.31-2.49,17.71-.19.92-.98,4.13-2.6,2.62-2.19-2.04.8-20.72,1.85-24.52.56-2.03,2.71-4.72,2.93-6.19Z"/>
  <path class="cls-2" d="M645.12,502.07c2.09-7.31,11-2.25,15.84-1.92,9.9.67,20.04.44,29.28-3.34,1.37-.56,5.2-4.85,5.75-1.91,1.4,7.5-26.32,9.47-31.18,9.09-6.81-.53-12.81-3.93-19.69-1.91Z"/>
  <path class="cls-2" d="M725.75,336c-.19.18-2.22.32-2.94-.6-1.56-1.98-3.53-8.28-4.74-10.92-1.92-.16-.54,1.74-.2,2.6,5.5,13.86-3.27,1.47-7.01-1.62-1.67-1.39-9.36-4.53-7.17-6.74,1.51-1.52,9.87,3.53,11.51,4.79.26-1.73-.16-2.69-1.38-3.89-1.67-1.63-4.9-.93-4.36-3.79,7.48-3.77,19.23,17.27,16.31,20.15Z"/>
  <path class="cls-2" d="M688.32,231.37l-3.83,6.71c2.8-.6,4.37-2.8,7.67-1.91l-2.88,3.83,3.83,1.44c-4.3,4.54-9.44,15.24-6.72,1.45-2.42.99-2.52,5.12-5.75,4.8-.92-3.46,1.86-5.45,1.91-8.64-4.58,1.57-4.08,8.78-8.63,9.6-2.73-3.23,8.23-19.7,14.39-17.27Z"/>
  <path class="cls-2" d="M514.54,493.46c.1.07-.31,1.39,1.2,2.2,8.98,4.82,20.97,5.17,30.96,4.49,4.99-.34,14.5-5.36,15.85,1.93-6.87-1.97-13.64,1.58-20.6,1.96-6.14.33-24.3-1.66-28.37-6.27-1.93-2.18-1.07-5.8.95-4.31Z"/>
  <path class="cls-1" d="M484.8,235.2c2.99,6,7.3,12.15,6.71,19.2-1.9,2.28-4.62-7.39-4.93-8.02-2.1-4.14-6.07-10.49-9.41-13.62-1.37-1.29-5.54-2.25-4.84-3.78,1.64-3.58,19.84-6.06,20.15.46h-12.47c-.47,2.34,1.79,2.75,2.88,3.85.64.65,1.28,1.28,1.92,1.92Z"/>
  <path class="cls-2" d="M608.64,234.24c3.09.54,1.65-1.56,1.88-3.36.66-5.18,2.25-12.26,6.22-15.9,2.13-1.94,3.3-1.44,5.26-2.42,1.59-.79,5.92-5.32,3.91,1.51-.06.21-.76.55-.96.96-1.54,3.16-3.24,5.99-4.57,9.35-.61,1.54-1.87,7.63-2.16,7.93-3.55,3.6-.54-10.41-1.42-10.55-2.97,3.57-2.21,12.48-4.28,15.78-.78,1.25-2.83-.44-3.89-.42-.03-.96.02-1.92,0-2.88ZM618.23,220.8c.69-1.35-.61-2.56-.94-1.91-.69,1.35.61,2.56.94,1.91Z"/>
  <path class="cls-2" d="M625.92,214.08c.63-1.02,5.28-6.27,4.8-2.42-.63,4.99-5.52,10.47-5.76,15.86-5.31-.38-1.42-5.69-.42-8.63.45-1.33.15-3.12.43-3.85.07-.19.7-.54.96-.96Z"/>
  <path class="cls-2" d="M658.56,336.96c3.73,7.27,4.7,14.28,3.74,22.46-.3,2.52-3.52,13.64-4.78,15.38-1.46,2.01-5.41,2.51-4.7.11.42-1.41,2.05-2.97,2.59-5.1,1.1-4.37,3.15-14.75,3.15-18.93-.01-4.83-2.99-9.12-2.87-13.92.83.22,1.63.48,2.42.79l.46-.79Z"/>
  <path class="cls-2" d="M594.25,480c-.12.78.19,2.67,0,2.87-.79.85-16.96,1.81-21.67,7.61-6.42,7.91,12.47,11.33,16.86,13.08,1.55.62,2.34-.09,1.92,2.35-33.35-3.58-27.55-25.61,2.89-25.91Z"/>
  <path class="cls-2" d="M480.96,498.24c-.62,4.46,3.46,7.68,7.43,8.41,10.57,1.96,21.3-4.78,31.75-.98,1.52.55,2.57-.52,2.1,2.16-11.91-2.17-32.57,8.41-41.69-1.98-2.07-2.35-4.65-7.11.41-7.62Z"/>
  <path class="cls-2" d="M617.28,505.91c-.43-2.45.38-1.73,1.92-2.35,4.71-1.9,14.16-3.23,17.18-7.86,5.7-8.73-18.17-11.04-21.34-12.81-1.02-.57-.89-2.65-.65-2.89,2.09-2.15,28.48,4.86,25.78,14.66-1.43,5.2-17.32,12.17-22.9,11.25Z"/>
  <path class="cls-1" d="M552,338.88c.96,3.46-1.11,4.03-1.69,7.43-1.64,9.52,2.36,20.8,4.57,30.01-3.31.71-3.87-1.91-4.97-4.14-3.46-7.04-7.35-26.63-.78-32.34.34-.29,2.24-.28,2.88-.96Z"/>
  <path class="cls-2" d="M686.4,507.83c-.42-2.49.38-1.72,2.07-2.19,11.26-3.11,26.78,4.91,35.67-.85,3.5-2.26,4.05-3.47,2.57-7.51,6.48,1.76,2.88,7.28-1.03,10.01-11.1,7.73-26.84-1.35-39.29.54Z"/>
  <path class="cls-2" d="M664.32,125.76c3.19-.97,19.34-5.42,21.12-3.83.22,1.24,0,1.65-1.01,2.34-1.94,1.34-12.71,3.12-16.52,4.6-4.21,1.64-16.45,10.62-10.31.73,2.86-1.26,2.93-1.74,4.8-2.88.82-.27,1.51-.84,1.92-.96Z"/>
  <path class="cls-2" d="M657.6,129.6c-1.97.86-10.24,3.08-11.36,4.97-.73,1.23,1.91,10.64.8,13.27h-2.88c2.9-2.53-2.44-12.97-1.92-13.44.21-.19,1.94.39,2.63-.2.42-.36.64-2.63,2.11-4.19,5.44-5.76,18.17-10.27,25.98-10.02.51,2.73-.71,1.55-2.09,2.17-2.94,1.32-4.11,2.14-6.54,3.58-.51.3-1.19.52-1.92.96-1.13.37-3.08.07-4.21.87-1.03.72-.42,1.74-.59,2.01Z"/>
  <path class="cls-2" d="M723.84,315.84c-4.61-9.24-7.45-22.71-21.12-20.16-1.19-4.2,4.56-4.37,7.78-3.43,2.03.59,1.91,2.29,2.85,2.85,2.27,1.36,3.9,1.15,6.21,3.43,4.14,4.08,6.46,11.69,7.16,17.31-.94-.05-1.94.1-2.88,0,2.98,5.97,8.69,11.2,7.68,19.2,2.81,3.65.73-6.91.5-7.71-.46-1.64-3.72-8.29-3.38-8.61,4.02-3.76,10.74,15.06,6.5,18.03-.23.16-5.29,1.33-5.52,1.16-.66-.48-3.77-12.71-5.26-15.41-1.34-2.44-4.85-5.06-5.32-6.2-1.15-2.77,4.02-.55,4.79-.47Z"/>
  <path class="cls-2" d="M774.73,338.88l.95-2.88c5.6.86,3.48,8.99,3.83,13.45h-2.87s-.01-8.64-.01-8.64c-2.12.72.08,5.4-3.83,4.79l-1.94-12.47c-1.71-.22-.93,2.16-.83,3.23.05.55,2.24,11.76-1.06,8.28-1.02-1.07-1.98-18.5-6.73-21.11,3.71-.78,3.91,2.59,5.85,4.22.92.77,2.57.78,3.8,1.96,2.05,1.97,3.16,6.35,2.84,9.16ZM769.91,332.16c.69-1.35-.61-2.56-.94-1.91-.69,1.35.61,2.56.94,1.91Z"/>
  <path class="cls-2" d="M503.04,362.88c-.56-3.71-2.59-10.43.95-12.48l1.92,5.75v-9.6s2.89,0,2.89,0c-.99,7.89,3.43,14.14,5.76,21.12l-4.79-.96-1.43,3.83c-2.01-2.83-2.9-4.95-5.29-7.67,1.11,7.38,3.55,14.51,3.84,22.07-1.98.43-2.18-1.01-3.09-2.18-1.59-2.03-6.8-10.57-7.45-12.72-.91-3.04,3.68-.28,3.82-.46l-.95-9.59c.83-.99,3.2,2.15,3.83,2.88Z"/>
  <path class="cls-2" d="M542.39,344.64c-3.26,12.01,3.22,22.84,6.06,33.8,1.15,4.43-1.45,5.01-3.64.75-2.48-4.81-6.94-17.51-7.13-22.71-.11-3.17.52-11.65,4.72-11.84Z"/>
  <path class="cls-2" d="M455.04,192.96c.62-2.2,3.75-10.03,4.96-11.84.54-.81,3.6-4.68,4.64-3.51-.38,3.97-2.68,7.38-3.57,11.3-1.32,5.84-.31,14.59-2.09,19.06-1.01,2.54-1.22,1.28-2.98.36-.79-4.78-2.38-10.35-.96-15.36Z"/>
  <path class="cls-2" d="M443.52,218.88c.82-1.15,3.26-2.53,3.58-4.47.54-3.28-5.5-13.09,2.18-14.72-.61,1.75-.47,12.06,0,12.47.27.24,2.17-.27,3.11.02s.71,1.86,1.34,1.94c1.27.17,5.36-1.78,6.1-1,2.28,2.39-2.49,3.13-3.36,3.79-2.4,1.83-3.07,5.1-6.22,5.8l1.44-7.66c-4.04,1.3-6,10.31-7.22,11.5-3.08,3-.97-6.77-.95-7.68-3.45,4.85-3.54,7.3-5.76,12.48l13.44-7.68c0,2.26-2.01,3.06-2.93,5.22-1.05,2.47-3.29,13.45-3.8,13.97-1.39,1.41-1.73-.1-1.9-1.42-.5-3.76.4-7.41.95-11.06-2.13,1.23-3.4,4.54-4.29,6.73-1.46,3.6-.43,7.8-4.33,6.71-.13-1.9.15-3.87,0-5.77-2.3,4.9-2.98,9.78-9.59,9.6-.96-4.19,2.57-4.53,3.84-6.19,1.71-2.26,2.38-6.35,5.75-6.28.06.95-.07,1.93,0,2.87,1.07-2.28,1.9-4.42,2.88-6.72-3.5.76-.97-2.62-2.4-4.81-.44,0-1.46,7.61-4.31,4.8-.99-.97,2.27-9.95,3.88-10.99,1.71-1.1,4.87-.49,6.19-3.43,1.64-3.64-2.33-6.77.98-9.56,2.33-.46,1.36,1.86,1.43,3.34.11,2.69.07,5.48,0,8.17Z"/>
  <path class="cls-2" d="M750.72,312.96c-1.88-1.37-2.75-2.42-5.76-1.92,2.06,6.39-5.9,17.06-2.9,5.27l-2.86.5v-12.48c2.96-.6,2.28,2.63,3.04,3.63.39.51,10.27,1.3,12.69,2.22,2.72,1.03,7.29,4.91,8.26,7.58.29.81.56,3.54-1.43,2.87-2.91-4.14-5.51-7.61-11.05-7.67,1.99,1.45,8.25,8.56,9.79,10.86,2.95,4.4,5.52,11.7,5.57,16.98-2.5.46-1.69-.47-2.36-1.91-2.43-5.27-5.62-15.68-9.43-19.89-.57-.63-11.98-6.13-3.57-6.04Z"/>
  <path class="cls-2" d="M675.84,146.88c.27.09.6.74.96.96,1.35,1.51,1.95,4.09,4.06,5.06,2.56,1.18,5.59.41,8.45,1.15,1.81.47,7.73,4.06,9.57,5.31-.38-2.21-1.18-2.95-2.94-4.26-.84-1.89-10.47-2.86-9.53-4.85,2.54-5.36,15.31,3.71,17.69,7.25.7,1.04,4.66,9.14,1.04,7.61-2.07-1.99-3.86-4.12-6.25-5.75.2,1.15-.13,2.61,0,3.84-3.77.1-5.97-3.82-9.6-5.27s-7.21-.89-9.58-1.94c-1.81-.8-3.94-4.55-7.32-6.12-3.02-1.4-6.63-2.1-9.97-2.03-.1-5.11,10.56-1.91,13.44-.96Z"/>
  <path class="cls-2" d="M675.84,146.88c-3.17-2.88-5.22-3.17-9.6-2.88,1.58-9.21,21.34,3.77,18.23,6.72l-7.68-2.87c-.3-.33-.63-.66-.96-.96Z"/>
  <path class="cls-2" d="M587.52,182.4c.24,1.78-.17,3.91,0,5.76-.87.12-1.22.11-1.94-.45-1.05-.84-5.42-8.75-7.24-11-2.7-3.33-5.1-2.15-5.3-8.22-.14-4.36,1.92-14.46,7.76-12.96-1.95,5.4-4.71,10.56-3.85,16.6,3.86,2.43,6.26,5.49,9,9,.35.45,1.51.23,1.57.31.11.14-.05.61,0,.96Z"/>
  <path class="cls-2" d="M775.68,256.32c3.08,6.33,3.54,6.37,1.92,13.44l-3.83.96c-.45-3.29-.92-6.4-1.93-9.6-.37-1.17-.1-1.33-.96-2.88-.66-2.84-1.24-5.64-3.02-8.02-1.68-2.25-4.54-2.65-4.66-5.41,6.45-.85,10.05,6.54,12.48,11.51Z"/>
  <path class="cls-2" d="M770.88,258.24c.24,1.03.95,2.73.96,2.88.12,1.35.27,3.76-.46,4.81-3.03,4.37-3.45-1.94-4.12-3.58-3.27-7.95-8.9-15.29-18.45-11.8,1.98-7.43,11.09-3.97,15.37-.5,1.65,1.33,5.72,6.41,6.7,8.18Z"/>
  <path class="cls-2" d="M759.35,338.88c-2.79.54-1.53-.83-2.16-2.11-1.56-3.16-2.77-10.97-6.47-9.89,1.47,2.4,3.87,5.17,4.61,7.88,2,7.3-6.87-5.41-7.46-5.99-.56-2.04-6.58-2.88-5.79-4.75,1.14-2.7,5,.14,5.75-.5l-.96-2.86c9.12-.28,12.88,10.4,12.47,18.23Z"/>
  <path class="cls-2" d="M719.04,186.24c2.85,5.1-.62,3.02-2.91,5.24-5.8,5.59-4.74,14.74-7.18,21.65-3.67-.09-2.59-10.24-2.16-12.74.8-4.72,7.41-12.9,7.45-14.15,2.4-1.42,3.47-.21,4.8,0Z"/>
  <path class="cls-2" d="M477.12,176.64c-3.21.94-2.24,1.43-3.84,2.88-.82.75-.69,1.54-.96,1.92-.08.12-1.32-.31-1.76.16-.6.64.04,2.13-.16,2.72-.18.52-.76,1.03-.96,1.92-.45.74-1.53.8-2.25,3.01s-2.01,13.8-2.57,14.26c-.11.09-2.94.44-2.88-.57-.91-7.14,1.43-17.14,5.78-22.95,1.68-2.25,9.6-10.07,9.6-3.36Z"/>
  <path class="cls-2" d="M477.12,176.64c1.53-.45,7.44-1.65,6.72,1.43-3.44,2.36-7.02,4.26-9.6,7.69-1.45,1.93-3.53,7.84-3.86,8.15-3.15,3.07-1.12-6.91-.95-7.68.42-.69.71-1.56.96-1.92.67-.98,1.27-1.93,1.92-2.88.46-.67.87-1.87.96-1.92,1.16-.66,3.84.83,3.84-2.88Z"/>
  <path class="cls-2" d="M460.8,320.65l-2.88,3.83c1.66,1.29,8.69-4.95,8.64.96-4.62-1.45-11.19,11.29-12.01,11.54-1.88.57-1.62-1.09-1.4-2.36.62-3.47,4.73-5.68,3.33-9.16-2.97,2.82-3.47,8.74-5.27,11.83-.63,1.08-2.67.83-2.89.64-1.38-1.19,5.33-20.5,12.47-17.27Z"/>
  <path class="cls-1" d="M737.28,183.36c-.46-1.18.26-2.16-1.34-3.92-2.07-2.28-6.12-1.01-3.93-4.73,9.47-1.11,14.79,17.41,14.91,24.54.04,2.51-1.45,8.07-3.16,4.03-2.14-5.04-1.36-14.95-4.48-19.34-.74-1.04-1.83-.44-2-.58Z"/>
  <path class="cls-2" d="M558.72,343.69c.63.58-1.67,3.85-1.87,5.32-.75,5.6.25,13.27,1.15,18.92.2,1.23,3.34,7.39-.7,6.47-2.25-.51-5.44-16.75-5.33-19.63.1-2.41,3.2-14.38,6.75-11.08Z"/>
  <path class="cls-2" d="M658.56,114.25l-30.71,17.27c-2.56-2.69,10.73-11.6,12.78-12.65,5.24-2.69,12.04-5,17.93-4.62Z"/>
  <path class="cls-2" d="M477.13,346.56v2.87c-2.73-.12-6.35-.06-7.69,2.87,1.58.49,6.99-1.66,7.68-.95,2.43,2.53-3.55,3.41-5.3,4.78-2.37,1.86-2.8,4.68-4.79,6.73-2.21.52-1.61-2.06-1.37-3.29.55-2.85,2.56-3.71,2.82-6.29-3.1-.99-6.13,8.06-8.63,5.75-.75-.69,2.02-4.62,2.66-5.49,3.59-4.9,8.32-7.94,14.62-6.98Z"/>
  <path class="cls-2" d="M658.56,247.68c-.68,2.51-2.9,15.35-3.85,16.31-2.94,2.98-.95-6.28-2.86-5.75.02,2.64-.74,5.16-1.49,7.65-.42,1.38.24,3.37-1.86,2.9-2.98-1.45,1.6-19.48,2.4-20.15.26-.21,2.07.12,2.86,0l.95,4.8c.14-2.29.78-5.94,3.85-5.75Z"/>
  <path class="cls-2" d="M651.75,374.32c-.34.22-2.68.18-2.78.08-.86-.82,3.4-18.17,2.79-23.44-.17-1.5-4.24-12.37,1.52-6.31,2.84,3,2.77,12.69,2.3,16.69-.19,1.64-3.26,12.62-3.83,12.98Z"/>
  <path class="cls-2" d="M723.84,234.24c-1.11,1.76-.9,1.49-1.92,2.88-2.65.9-2.47,3.71-2.88,4.8-.31.83-.28,2.18-.96,2.88-.15.15-1.34-.34-1.78.12-1.14,1.19-1.3,10.5-2.53,12.38-1.09,1.67-2.8.92-3.27-.64-.97-3.21,2.63-15.88,4.84-18.91,1.41-1.94,6.01-6.26,8.5-3.5Z"/>
  <path class="cls-2" d="M636.47,107.52c2.38,2.54-6.31,5.35-8.15,6.72-2.69,1.99-7.2,6.93-9.61,9.59-1.1,1.21-4.12,7.83-6.23,5.77-2.39-2.34,9.1-14.98,11.49-16.82,1.75-1.35,11.26-6.57,12.5-5.25Z"/>
  <path class="cls-2" d="M647.04,111.37c.27.27.26,2.35-.57,2.96-1.53,1.13-8,2.87-11.24,4.9-2.26,1.42-11.67,10.87-13.14,9.41-4.45-4.44,21.34-21,24.95-17.27Z"/>
  <path class="cls-2" d="M485.76,361.92c-1-4.79-3.24-12.23-2.91-16.78.14-1.91,2.04-9.81,4.83-7.22.44.41-1.16,9.23-.99,12.03.25,4.06,1.93,7.87,1.94,11.96-.89-.13-2.15.22-2.87,0,.58,2.77,1.63,4.96,1.91,7.68-4.32.66-5.49-9.17-7.21-9.59-2.4-.58-3.34,7.65-8.14,5.75.37-3.13-1.37-8.12,1.91-9.6l.49,3.85c0-2.99,4.68-2.29,5.25-2.92,1.03-1.16-2.93-7.78.52-9.56l3.28,12.08c.32,1.14.79,1.96,1.99,2.31Z"/>
  <path class="cls-2" d="M473.28,444.49c.36,1.91-.87,2.32-2.32,2.95-7.54,3.27-27.36,2.36-24.81,15.98.56,2.99-2.63,1.08-2.68-3.13-.13-11.98,20.74-15.18,29.81-15.8Z"/>
  <path class="cls-2" d="M738.25,301.44c-.59-.45-2.09-11.48-3.37-14.4-2.08-4.76-6.37-6.97-8.16-11.51,9.17.48,15.92,15.35,14.39,23.51-.27,1.43-1.65,3.32-2.86,2.4Z"/>
  <path class="cls-2" d="M754.55,357.12c-1.17,1.29-9.16-8.04-10.62-9.05-5.47-3.83-7.08-3.31-13.15-2.69-4.35.45-1.7-2.32.46-3.39,8.16-4.03,22.63,6.15,23.3,15.13Z"/>
  <path class="cls-2" d="M764.15,464.64c-2.38,2.59-1.87-5.04-2.15-6.01-2.56-9.1-17.66-8.31-24.32-11.2-1.45-.63-2.68-1.04-2.32-2.95,9.04.77,27.4,3.35,29.39,14.36.2,1.09-.27,5.43-.61,5.79Z"/>
  <path class="cls-2" d="M479.03,345.6c-.41.47-6.67-2.09-12.18.77-2.07,1.07-11.64,12.02-12.76,10.75-.46-8.86,16.91-20.11,23.97-14.85,1.08.8,1.44,2.79.98,3.33Z"/>
  <path class="cls-2" d="M466.56,307.2c.07,2.96-.78,6.67,1.92,8.64-.38.56-1.92.72-1.99,1.61-.09,1.11,1.46,3.76,1.03,4.14-3.56,3.1-4.81-8.56-4.8-10.56-6.06.37-9.86,2.56-13.97,6.71-.99.99-1.28,2.78-1.4,2.89-2.01,1.79-2.36-2.66-1.9-3.83.18-.46,6.65-6.13,7.42-6.5,4.18-2.03,9.77-.5,13.7-3.1Z"/>
  <path class="cls-2" d="M444.47,345.6c-.07,4.55-1.12,9.51-2.96,13.64-.35.78-1.84.79-1.86,1.32-.14,3.57,8.03,13.43,6.74,14.79-2.38.05-4.32-2.77-5.59-4.48-6.75-9.09-3.48-14.55,1.35-23.32.68-1.24-.32-2.48,2.32-1.94Z"/>
  <path class="cls-2" d="M480.95,274.56c-.88,4.91-5.65,8.06-7.7,12.93-1.26,3-2.38,12.54-2.86,12.99-.21.19-2.09-.12-2.87,0-1.37-10.1,3.18-22.47,13.43-25.92Z"/>
  <path class="cls-2" d="M730.56,194.88c.48,2.14,0,3.21.03,3.37.19.86,2.2-1.06,3.82-.07,4.38,2.67-1.89,3.71-3.23,4.51-1.71,1.02-4.44,4.08-5.92,4.66-1.83.71-1.45-3.9-3.33-1.91-.14.15-.06,3.78-1.45,3.82-4.03.14.86-8.18,2-9.5,2.78-3.25,4.29-3.53,8.08-4.88ZM729.6,198.72c-1.39-1.43-3.94,3.87-4.78,4.32,1.24.3,5.91-3.16,4.78-4.32Z"/>
  <path class="cls-2" d="M765.1,344.64c1.96,6.61,6.89,12.11,5.71,19.62-.4,2.56-6.96,13.46-9.53,11.09-.7-.65,6.49-10.14,6.68-13.01.18-2.61-4.1-11.34-4.71-15.37-.3-1.99-.48-2.7,1.85-2.33Z"/>
  <path class="cls-2" d="M445.44,323.52c-1.42,3.3-3.01,6.32-4.12,9.79s-.2,8.51-3.55,10.36l1.44-13.42c-3.1.23-3.01,19.05-6.24,15.34-.25-4.69,0-9.47,2.05-13.78l10.42-8.29Z"/>
  <path class="cls-1" d="M730.56,194.88c-.29-1.31-.07-3-.91-4.17-.63-.88-1.87-.53-1.97-.63-.15-.15.49-1.26-1.18-2.21-2.28-1.29-4.98-1.23-7.46-1.63-1.33-.21-2.4-1.42-4.8,0,0-.08-1.29.24-.87-1.33,1.42-5.32,19.8-3.46,20.88,6.85.41,3.88-1.89,2.48-3.68,3.12Z"/>
  <path class="cls-2" d="M503.04,308.16c1.82-.85,8.4-3.38,9.96-2.82,2.09.74.26,5.62,6.35,3.79.31,1.41-.14,1.55-1.01,2.34-1.29,1.18-10.12,6.46-11.46,5.33l6.71-8.63c-.37-.34-5.92,1.7-6.94,2.17-2.52,1.17-8.52,7.23-6.49-.25.35-.28.61-.68.96-.96.12-.1.97-.21,1.92-.96Z"/>
  <path class="cls-2" d="M500.16,310.08c-1.02.84-3.43,1.12-4.33,3.83-2.22.53-1.65-2.11-1.23-3.16,1.71-4.3,10.18-10.21,15.16-8.35.64,3.37-4.99,2.48-6.53,4.06-.42.43-.06,1.6-.18,1.69-.72.34-1,.12-1.92.96-.33.3-.83.46-.96.96Z"/>
  <path class="cls-2" d="M661.44,229.45c.31,3.05-2.58,4.24.5,4.79,3.23.58-.32,3.16-1.33,5.39-.61,1.34-1.83,5.89-2.05,6.12-3.61,3.67-.03-8.29-1.9-7.67-.19,2.23-.86,4.46-1.69,6.52-.58,1.45.57,2.6-2.16,2.11-.71-6.04,1.65-16.55,8.63-17.27ZM659.04,235.2v.96c.62-.32.62-.64,0-.96Z"/>
  <path class="cls-2" d="M636.5,138.23c.12.1,2.02.36,1.92-.49l-.97-3.34c5.47,1.04,6.01,8.93,5.75,13.43-2.4,3.02-2.92-8.19-4.79-7.67-.15.73.95,12.45-1.92,9.59-.63-.63-3.14-14.45-5.78-16.79,2.93-1.89,5.3,4.86,5.79,5.26Z"/>
  <path class="cls-2" d="M700.8,165.12c1.21,1.25-.48,2.39-1.19,3.16-2.68,2.91-6.65,5.58-9.37,8.84-.66.79-5.14,10.02-6.72,8.15-3.28-5.86,14.24-23.29,17.27-20.15Z"/>
  <path class="cls-2" d="M488.64,330.24c-1.09,1.62-3.29,3.72-4.33,5.76-4.3.99-.35-8,.66-9.91,2.32-4.39,7.49-10.35,12.77-10.29s-1.48,2.82-1.75,3.04c-4.15,3.38-2.72,3.61-4.47,6.6-.32.32-.66.62-.96.96s-.77.62-.96.96c-.75,1.35-.81,1.02-.96,2.88Z"/>
  <path class="cls-2" d="M491.52,325.44c1.9-1.92,10.93-9.29,13.44-6.71,2.3,2.36-2.46,3.15-3.39,3.77-2.07,1.4-4.87,3.27-6.69,4.87-1.29,1.14-6.85,10.48-6.25,2.87,1.02-1.51.79-2.61.96-2.88.2-.32.72-.58.96-.96.19-.3.72-.55.96-.96Z"/>
  <path class="cls-2" d="M661.44,222.72c-1.02-4.39,2.24-2.6,4.12-3.81,1.57-1.02.17-4.64,5.98-4.88,2.45-.1,11.73,1.7,9.1,4.85-.43.52-10.91-2.27-13.43-.95.73,1.8,4.09,1.01,6.03,2.12,1.25.71,1.96,1.03,1.65,2.67h-13.44Z"/>
  <path class="cls-2" d="M776.63,360c.67.64-.84,5.8-.93,7.22-.08,1.33.75,2.65.52,4.36-.4,2.93-5.72,12.31-5.35,4.74-10.11,3.66-.47-5.14,1.44-9.6.92-2.13,1.48-9.45,4.32-6.72ZM771.36,374.4v.96c.62-.32.62-.64,0-.96Z"/>
  <path class="cls-2" d="M764.15,467.52c1.89,7.33-22.99,15.47-23.99,14.39-.21-.22-.31-2.23.59-2.94,2.43-1.92,9.01-3.31,12.23-4.87l11.17-6.58Z"/>
  <path class="cls-2" d="M665.28,119.03l-9.29,2.71-15.66,8.81c-.37-6,7.21-8.8,11.82-10.73,2.86-1.2,13.22-6.25,13.13-.79Z"/>
  <path class="cls-2" d="M556.8,123.83c-.1.1-1.86-.11-2.79.54-1.95,1.37-4.22,7.36-4.66,9.78-.52,2.86,1.04,10.36-3.03,7.86-2.63-1.62.09-13.19,1.64-15.97,4.32-7.71,10.89-4.28,8.84-2.21Z"/>
  <path class="cls-2" d="M481.92,432.97c.43,2.45-.38,1.73-1.92,2.35-6.88,2.76-15.28,1.88-22.12,3.85-1.64.47-7.29,3.74-7.64,3.39-2.15-2.1,6.85-5.69,7.89-6.02,7.65-2.46,15.93-2.31,23.78-3.57Z"/>
  <path class="cls-2" d="M467.51,481.92c-1.15,1.23-24.57-7.64-23.99-14.39.78-.78,8.35,5.15,9.91,5.92,1.9.95,17.3,5.03,14.08,8.47Z"/>
  <path class="cls-2" d="M757.44,441.59c-3.09.04-5.42-1.96-8.42-2.61-6.09-1.31-14.14-1.29-19.85-3.19-1.57-.52-2.79-.73-2.44-2.83,9.75,2.12,24.21-.01,30.72,8.63Z"/>
  <path class="cls-2" d="M727.68,190.08c2.31,2.31-2.67,3.21-3.31,3.86-2.05,2.07-5.44,7.52-7.1,10.22-.66,1.07-1.49,6.61-3.98,4.16-1.57-1.54,2.46-10.07,3.84-12,1.46-2.04,8.15-8.64,10.56-6.24Z"/>
  <path class="cls-2" d="M774.71,327.36c-.25.24-2.32.37-2.89-.65-2.06-3.66-2.19-10.57-4.94-15.04-1.93-3.14-5.26-4.63-7.52-7.35,8.34-3.67,18,20.45,15.35,23.03Z"/>
  <path class="cls-2" d="M463.68,457.93c-3.78,10.85,3.39,8.29,11.53,9.6,1.19,5.23-8.06,3.82-11.72,2.56-9.58-3.32-1.69-14.15.18-12.16Z"/>
  <path class="cls-2" d="M643.2,345.6c8.02-1.47,6,21.94,4.79,23.04-5.12-1.12-2.36-11.79-2.97-16.73-.2-1.61-.41-3.96-2.78-3.43.1-1.15.84-2.12.96-2.88Z"/>
  <path class="cls-2" d="M433.91,360c.29.29,1.48,5.53,2.19,6.94,1.15,2.27,5.24,7.43,5.52,8.89.74,3.88-3.91-1.35-4.81-.46l.95,3.83c-1.72,1.71-5.36-5.92-5.58-7.45-.18-1.19-.32-9.2-.2-10.3.15-1.35.62-2.76,1.93-1.44ZM436.32,373.44v.96c.62-.32.62-.64,0-.96Z"/>
  <path class="cls-2" d="M733.44,470.38c-.22-.27.12-2.06-.01-2.85,1.89.3,11.88-1.23,12.42-2,.85-1.22-1.45-5.73-.89-7.6,1.6-1.72,4.5,4.73,4.55,6.4.19,6.69-14.24,8.31-16.07,6.05Z"/>
  <path class="cls-1" d="M749.76,305.28c7.96-2.16,18.24,7.5,18.07,15.09-.04,1.65-1.83,2.9-2.7,2.19-.2-.16-1.14-3.35-1.93-4.8-3.47-6.4-2.28-7.05-9.79-9.9-3.62-1.37-3.16.84-4.61-2.58h.96Z"/>
  <path class="cls-2" d="M589.44,151.69c.77.72-8.29,16.35-7.59,19.59l-2.96.57c-2.13-3.65,6.66-23.81,10.55-20.16Z"/>
  <path class="cls-2" d="M725.76,295.68c-1.12-2.01-3.57-6.87-4.78-8.18-2.56-2.78-6.57-2.87-8.97-4.28-3-1.76.12-3.56,4.17-2.44,6.44,1.77,11.92,8.05,11.49,14.9-.63.05-1.28-.03-1.92,0,3.72,6.69,6.89,13.07,5.75,21.12-1.6.31-2.02-.35-2.65-1.66-1.37-2.83-2.15-8.93-3.6-12.72-2.01-5.25-6.66-6.39.5-6.74Z"/>
  <path class="cls-1" d="M457.92,305.28h.96c-2.56,3.16-1.43,1.21-5.34,2.82-6.11,2.51-5.31,3.95-8.1,8.7-1.23,2.1-2.29,5.87-4.79,5.76.31-1.96-.46-5,0-6.72,1.12-4.26,12.09-12.5,17.28-10.56Z"/>
  <path class="cls-2" d="M564.47,345.6c-1.55,6.82-1.64,12.8-1.91,19.68-.06,1.48.9,3.8-1.43,3.34-3.17-5.78-3.29-15.26.27-20.83.82-1.28,1.16-2.58,3.07-2.2Z"/>
  <path class="cls-2" d="M737.28,183.36c.92,2.39,2.46,5.86,2.81,8.24.17,1.14.4,3.17-1.36,2.31-.98-.48-5.5-10.01-10.55-13.49-.8-.55-5.69-1.43-3.38-3.78,2.74-2.78,10.4,4.98,12.48,6.71Z"/>
  <path class="cls-2" d="M689.29,363.84c1.27-7.35,3.4-13.04,3.85-20.63.09-1.48-.95-3.8,1.41-3.36,2.35,2.77,1.77,9.27,1.22,12.72-.18,1.15-4.3,13.77-6.48,11.27Z"/>
  <path class="cls-2" d="M717.04,360.9c-.3.19-2.7.15-2.8.06-.55-.5,1.91-12.33,1.83-14.79-.08-2.62-2.09-5.45-1.83-8.24,7.8-.43,4.44,21.93,2.8,22.97Z"/>
  <path class="cls-2" d="M494.4,337.93c-3.79,7.09-.73,13.86-.92,20.61-.02.81.38,3.38-1.47,2.42-3.19-1.66-6.25-22.86,2.38-23.03Z"/>
  <path class="cls-2" d="M654.71,228.48c-1.69,6.74-5.44,12.87-4.8,20.16-.79-.13-2.57.21-2.85-.01-2.68-2.18,1.03-20.32,7.65-20.15Z"/>
  <path class="cls-2" d="M637.44,156.48c.76.75-2.12,6.9-2.85,8.17,6.41-2.81.79,9.25-.98,7.18v-3.83c-1.02.18-2.13,3.73-3.84,1.91-1.81-1.93,4.38-16.67,7.67-13.43Z"/>
  <path class="cls-2" d="M683.52,126.73c1.41,1.19-1.68,2.53-2.36,2.91-2.06,1.17-18.02,9.33-18.75,8.6-2.03-2.03,3.87-5.18,5.12-5.91,2.17-1.27,14.51-6.85,15.99-5.6Z"/>
  <path class="cls-2" d="M794.99,299.46c.41.41,2.62-.51,2.84.59.44,2.21-.44,5.67-.07,8.11-4.12.06-2.72-4.84-2.88-7.67-2.01.35-.48,4.54-3.83,3.83.27-2.37.55-17.26,2.39-17.26,2.75,0,.68,11.54,1.55,12.4Z"/>
  <path class="cls-2" d="M671.04,547.21c.44,2.6-.48,1.65-2.09,2.18-5.32,1.72-13.02,2.17-18.6,1.71-1.68-.14-3.14.19-4.26-1.51-.46-2.32,1.86-1.37,3.34-1.43,7.23-.27,14.36-1.21,21.61-.95Z"/>
  <path class="cls-2" d="M504,300.47c-.15.19-2.83.67-4.32,1.93-2.07,1.74-10.11,12.34-11.99,10.56-1.53-1.45,8.67-14.98,14.1-15.22,1.61-.07,2.88,1.89,2.21,2.73Z"/>
  <path class="cls-2" d="M545.76,551.04c-.97-.1-4.81-1.25-6.07-1.66-1.62-.52-2.53.41-2.09-2.18l24,.96v2.88c-5.11-.38-10.83.52-15.85,0Z"/>
  <path class="cls-2" d="M713.28,309.12c-1.64-5.83-2.88-5.29-7.7-8.17-1.22-.73-2.42.18-1.89-2.37,4.01-4.34,17.27,9.39,16.31,14.38-.27.29-6.11-3.39-6.71-3.84,2.7,9.63-4.82-.36-6.81-1.39-1.08-.56-1.97-.31-2.79-.53-.11-.13.2-1.14-.28-1.59-1.42-1.34-5.3-.02-4.51-3.2,7.5-1.6,9.48,3.11,14.4,6.71Z"/>
  <path class="cls-2" d="M557.76,326.4c.61.72.64,1.43.96,1.92-5.11.79-10.66,5.39-15.06,6.55-3.04.8-2.22-.55-2.22-2.71.26-.34.26-1.16.96-1.92,5.38-1.31,9.26-5.07,15.36-3.84Z"/>
  <path class="cls-2" d="M741.12,354.24c-3.33-2.67-5.07-5.75-10.57-4.8v-2.87c6.07-2.44,16.53,5.48,17.3,11.03.57,4.04-5.59-2.43-6.74-3.35.6.62,4.42,13.67-1.18,6.46-2.28-2.94-1.28-2.52-4.58-4.54-1.99-1.22-4.62-1.74-4.8-1.93-.57-.6.48-2.47,1.59-2.77.67-.18,8.64,2.44,8.97,2.78Z"/>
  <path class="cls-2" d="M673.92,156.48c-2.88.19-4.62-2.14-7.42-2.65s-5.63-.03-8.44-.22c-.94-.06-3.34.42-2.37-1.43,2.18-4.16,19.13-3.61,18.23,4.3Z"/>
  <path class="cls-2" d="M650.88,326.4c2.47-1.63,14.61,3.61,15.36,4.8.27.42.76,4.46-1.41,3.82-4.47-1.31-10.43-6.18-15.87-6.7,1.47-2.96,1.13-1.2,1.92-1.92Z"/>
  <path class="cls-2" d="M635.52,197.76c-.06,1.91.13,3.86,0,5.76-3.15-.75-2.05,3.94-2.89,4.8-2.93,2.95-1.22-6.21-.95-6.71-2.81-.82-2.77,4.81-3.85,5.75-3.77,3.25-.6-8.56,1.93-10.14,1.61-1.01,3.98.66,5.76.54Z"/>
  <path class="cls-2" d="M547.2,145.92c.11.11.39,2.77-.58,2.96-2.39-.38-14.26,6.26-14.78,5.67-4.13-4.63,13.14-10.91,15.36-8.63Z"/>
  <path class="cls-2" d="M499.2,358.08c-2.63,3.05-6.68-13.53-1.5-17.34,6.45-4.76,1.5,3.01,1.5,3.42v13.92Z"/>
  <path class="cls-2" d="M548.16,175.68c-7.87-2.16-9.76,5.29-16.31,5.76.54-6.54,13.51-14.24,16.31-5.76Z"/>
  <path class="cls-2" d="M676.8,180.48c.07.25-.02.63,0,.96-4.68.67-6.25-3.96-10.53-5.31-1.49-.47-5.81-.23-5.8-.94.13-6.99,14.33-1.39,16.33,5.29Z"/>
  <path class="cls-1" d="M528.96,153.61c.47,2.79-.65,1.56-2.23,2.04-2.03.61-4.1.8-6.1,1.62-3.96,1.63-6.92,4.61-10.86,5.93,2.03-8.88,11.33-10.37,19.19-9.59Z"/>
  <path class="cls-2" d="M453.12,319.68l-8.59,18.76c-.04,1.28-2.15,3.22-2.92,2.35-.86-.97,5.88-21.87,11.51-21.11Z"/>
  <path class="cls-2" d="M711.34,358.08c-.11.09-2.75.1-2.85,0-.43-.42,1.39-8.97.9-11.95-.31-1.89-3.47-5.67-2.82-6.28,2.07-1.94,5.81,3.57,6.31,5.69s-.74,11.88-1.54,12.54Z"/>
  <path class="cls-2" d="M678.72,365.75c.06,2.01.13,4.02-.22,6.02s-5.55,14.07-8.41,11.26c-.55-.54,4.44-10.77,5.1-12.67,1.09-3.15-.59-5.42,3.53-4.61Z"/>
  <path class="cls-2" d="M785.28,296.65c-4.64,1.23-2.29-3.41-3.79-6.11-.66-1.18-2.69-.16-2.97-1.1-.13-.43-.06-3.22.05-3.35,1.68-2.07,2.06,3.84,3.83,1.91.62-.68-2.6-5.95-1.91-7.67,7.11,1.62,4.28,10.91,4.79,16.32Z"/>
  <path class="cls-2" d="M538.56,383.03c-7.06-.79-9.32-11.29-8.63-17.27,2.09-.37,2.26.93,2.86,2.41,1.96,4.91,3.46,10.07,5.77,14.86Z"/>
  <path class="cls-2" d="M800.63,297.6c2.07,2.06,3.43,15.8,2.89,19.19l-4.82-4.5c-.3-2.59,1.02-4.95,1.06-7.5,0-.64-2.33-10.38.87-7.2Z"/>
  <path class="cls-2" d="M621.12,181.44c.2-.41,5.62-6.21,6.24-6.72,1.18-.98,2.7-2.09,4.32-1.91,1.22,1.29-6.27,10.37-7.52,12.17-.71,1.03-.99,3.08-1.12,3.18-2.9,2.22-2.67-5.13-1.91-6.72Z"/>
  <path class="cls-2" d="M479.03,318.72c-1.22,6.13-4.72,11.72-3.84,18.24h-2.87c-.18-6.34-.82-16.03,6.71-18.24Z"/>
  <path class="cls-2" d="M458.88,426.24c6.3-.44,13.39-2.81,19.65-2.92,1.97-.03,2.82-.54,2.42,1.94-7.3,2.15-16.92,1.66-24,3.85-.9-3.76,1.61-2.59,1.92-2.88Z"/>
  <path class="cls-2" d="M749.76,426.24c.35.31,2.79-.91,1.92,2.88-7.05-2.26-16.72-1.46-24-3.85-.38-2.46.39-2.01,2.38-1.9,6.42.35,13.28,2.25,19.69,2.88Z"/>
  <path class="cls-2" d="M691.19,168c-5.38-2.09-10.09-6.42-16.32-5.76v-2.87c6.37-.88,15.41,1.08,16.32,8.63Z"/>
  <path class="cls-2" d="M557.75,488.64c4.47,4.8-16.62,8.31-19.19,6.71-3.24-2.83,12.28-3.93,13.49-4.26,1.43-.39,5.18-3.01,5.7-2.45Z"/>
  <path class="cls-2" d="M532.81,159.36v2.87c-6.16-.99-10.27,5.2-16.32,4.8,2.07-6.44,10.25-8.4,16.32-7.67Z"/>
  <path class="cls-2" d="M669.13,492.48v2.87c-.91.95-15.42-.9-17.26-2.43-.99-.83-1.52-2.77-.99-3.33.64-.67,15.23,4.61,18.24,2.88Z"/>
  <path class="cls-2" d="M451.62,371.15c.44.71,2.36.38,1.49,3.25-5.94,2.07-12.63-17.3-8.16-17.26,1.37.01,1.61,5.01,2.19,6.43,1.12,2.75,2.94,5.09,4.48,7.57Z"/>
  <path class="cls-2" d="M536.63,360.96l5.76,18.24c-2.26,2.52-6.94-9.12-7.24-10.51-.2-.96-1.36-10.78,1.47-7.73Z"/>
  <path class="cls-2" d="M412.8,298.56c.16-3.44-.4-6.83.85-10.18.35-.95.71-3.05,2.02-1.33.53.69.94,14.77,1.92,17.27-3.73.72-2.96-5.56-4.79-5.76-.15,3.18.11,6.41,0,9.59-3.3.55-2.68-5.79-2.87-7.67-3.52,4.98.13,7.24-.98,11.82l-3.81,4.5c-.04-6.57-.83-13.58,3.37-19.19,2.3-.45,1.28,1.49,1.43,2.87.7-.99,1.52-2.29,2.88-1.92Z"/>
  <path class="cls-2" d="M764.15,357.12c.87,6.84-1.83,16.11-9.59,17.27.44-2.75,2.9-4.1,4.35-6.68,1.63-2.91,2.2-5.3,3.23-8.34.5-1.49-.84-2.74,2.02-2.25Z"/>
  <path class="cls-2" d="M503.04,288.96c-6.17-1.11-9.77,4.22-15.35,4.8,1.11-5.93,12.99-11.89,15.35-4.8Z"/>
  <path class="cls-2" d="M470.39,251.52l-12.18-7.49-2.21-3.06c5.84.1,14.44,3.87,14.39,10.55Z"/>
  <path class="cls-2" d="M751.67,240.96c2.41,2.6-5.44,4.87-7.04,5.92-1.13.74-5.47,5.72-6.39,4.63-2.68-5.33,12.09-12,13.43-10.55Z"/>
  <path class="cls-2" d="M658.56,201.6c.73.71,1.13.89,1.92,1.92l.96,3.84c-.13.36.26,1.17-.23,1.69s-1.29.11-1.69.23c-.95-2.02-3.28-2.55-4.8-3.84-.34-.29-.63-.65-.96-.96-.9-.84-5.21-4.29-3.83-5.76.81-.86,6.56,3.7,8.63,2.88Z"/>
  <path class="cls-2" d="M720,293.76l-14.39-6.22c3.22-5.36,17.35,3.19,14.39,6.22Z"/>
  <path class="cls-2" d="M786.25,300.48c1.16-5.92.79-10.24.23-16.08-.14-1.42-1.02-2.5,1.19-2.15,5.12,2.44,1.66,21.91-1.42,18.23Z"/>
  <path class="cls-2" d="M780.48,261.12c6.37-1.13,5.47,11.96,3.86,14.72-.58,1-2.63.89-2.89.64-1.01-.99,3.82-11.39-.97-11.52,0-.79.06-3.47,0-3.84Z"/>
  <path class="cls-1" d="M776.64,254.4c2.67-.34,3.5,4.48,3.84,6.72.06.37,0,3.05,0,3.84,0,1.8.08,8.85-.97,9.6-.81.57-2.47-.54-2.78-1.59-.45-1.52.67-2.31.87-3.21,1.62-7.07,1.16-7.11-1.92-13.44.12-.54-.18-1.71,0-1.92.08-.1.62.04.96,0Z"/>
  <path class="cls-1" d="M455.04,192.96c-1.42,5.01.17,10.58.96,15.36s-3.29,4.52-3.84-1.43c-.27-2.9-1.34-13.8,2.88-13.93Z"/>
  <path class="cls-2" d="M528.92,373.47c.46.38,2.81,9.86,2.92,11.49-3.18.44-5.86-.05-6.64-3.5-.39-1.75,1.72-1.05,1.89-1.9.31-1.57-1.59-5.57-1-6.11.1-.1,2.69-.1,2.83.02Z"/>
  <path class="cls-2" d="M695.04,308.16c-.39,2.59,8.23,6.17,5.76,8.64-.86.86-10.67-4.74-11.87-5.69-.97-.76-.67-.81-.6-1.99.77-.17,5.46-.96,5.76-.96.32,0,.64,0,.96,0Z"/>
  <path class="cls-2" d="M667.2,158.4h-14.4c.78-5.2,13.87-5.64,14.4,0Z"/>
  <path class="cls-2" d="M681.59,373.44c.81,2.16-.81,4.83-.86,6.31,0,.3,3.83.7.96,4.65-.95,1.3-4.28.3-5.86.56-.45-.39,2.72-8.48,3.35-9.64.72-1.34-.08-2.36,2.4-1.87Z"/>
  <path class="cls-1" d="M703.68,307.2c.84.96,5.64,5.91,4.8,6.72-4.16-1.22-8.94-5.67-13.44-5.76-.32,0-.64,0-.96,0l-.95-.49c-.19-2.97,7.78-1.21,10.55-.47Z"/>
  <path class="cls-2" d="M669.06,225.68c.19.3.16,2.7.07,2.8-1.05,1.1-11.11-1.52-13.44-.96-.76-4.95,12.88-2.64,13.37-1.84Z"/>
  <path class="cls-2" d="M661.44,163.2c-2.54-1.27-12.71,3.63-13.44,2.88-3.14-3.29,10.84-7.28,13.44-5.75v2.88Z"/>
  <path class="cls-2" d="M687.36,197.76c-2.02-3.43,8.25-11.9,9.6-10.56-.22,5.12-6.62,6.78-7.68,11.52-.75-.21-1.81-.95-1.92-.96Z"/>
  <path class="cls-2" d="M694.08,206.4c1.08,5.61-2.18,3.23-2.88,3.84,2.04-1.99-3.49-2.77-4.8-2.88-2.68-2.08-4.61-1.74-4.81-1.93-.1-.1-.09-2.77,0-2.87,2.08-2.14,9.73,4.03,12.48,3.83Z"/>
  <path class="cls-2" d="M686.4,207.36c.72.56,3.51,4.13,4.8,2.88-.25.21.29,2.61,0,2.88-.71.66-11.57-4.99-14.4-3.85-1.52-1.24.09-1.75,1.42-1.92,2.16-.27,5.93-.19,8.18,0Z"/>
  <path class="cls-2" d="M690.23,184.32c.6.67-4.2,9-4.92,9.95-.89,1.17-2.69,2.51-3.71,1.56-1.24-1.15,5.02-12.05,8.63-11.51Z"/>
  <path class="cls-2" d="M685.43,170.88c-.42.43-8.95-2.31-9.9-2.86-1.31-.77-.51-1.7-.66-2.89,2.36-1.58,13.44,2.82,10.56,5.75Z"/>
  <path class="cls-2" d="M533.76,165.13c2.38,2.02-15.2,9.86-9.66,2.33,1.99-2.7,6.63-2.48,9.66-2.33Z"/>
  <path class="cls-2" d="M553.92,191.04c-.66-1.28-2.01-.71-2.88-.96-1.79-.51-3.28-1.63-5.77-.96v-2.87c4.68.25,13.95-1.82,8.65,4.8Z"/>
  <path class="cls-2" d="M451.19,359.04c.79.77,8.65,17.27,1.43,9.62-3.27-3.47-4.53-12.65-1.43-9.62Z"/>
  <path class="cls-1" d="M686.4,213.13c.34,2.5-.28,1.97-2.29,1.81-2.82-.22-7.59-1.29-10.66-1.85-1.58-.29-1.65.61-1.44-1.89,5.15-.41,9.6.12,14.39,1.93Z"/>
  <path class="cls-2" d="M776.63,277.44c.91.87,2.83,13.3-1.9,12.47.3-3.52-.44-7.63,0-11.05.17-1.34.5-2.76,1.91-1.42Z"/>
  <path class="cls-2" d="M759.35,359.04c-.03,10.42-13.02,17.92-2.9,2.37.79-1.22.74-2.84,2.9-2.37Z"/>
  <path class="cls-2" d="M431.99,336.96c.04,2.97.15,5.9-.27,8.86-.22,1.53-.18,4.32-2.6,3.61.75-3.7-2.27-12.04,2.87-12.47Z"/>
  <path class="cls-2" d="M525.12,485.76c-1.23,5.21,6.76,1.94,5.76,7.68-1.14,1.21-14.65-5.57-5.76-7.68Z"/>
  <path class="cls-1" d="M466.56,307.2c.35-.23.31-3.73,2.87-2.88-.44,3.74,1.11,8.43-.95,11.52-2.7-1.97-1.85-5.68-1.92-8.64Z"/>
  <path class="cls-2" d="M653.76,190.08c-.3-.9-1.43-1.76-.54-2.91,1.47-1.83,6.84-.62,9.18-.93v2.87c-1.93-.77-3.7.77-4.81.96s-2.62-.14-3.84,0Z"/>
  <path class="cls-2" d="M685.43,485.76c2.94,4.5-7.13,9.7-8.63,6.22l8.63-6.22Z"/>
  <path class="cls-2" d="M542.39,136.32c-.68.66-12.18-3.9-9.59-6.71.67-.73,11.59,4.77,9.59,6.71Z"/>
  <path class="cls-2" d="M705.57,326.41c.55.48,1.24,8.1.99,9.58-3.19.43-3.73-6.01-3.84-8.17-.12-2.28,2.48-1.74,2.86-1.42Z"/>
  <path class="cls-2" d="M553.92,214.08c-.16-.16-1.24-.12-.96-.96,1.92-2.91,5.28-4.27,8.66-2.42s-6.68,3.87-7.7,3.38Z"/>
  <path class="cls-2" d="M505.92,326.41c.28.26-1.31,6.43-1.66,7.5-.52,1.61.42,2.53-2.18,2.09-.85-2,.13-12.95,3.83-9.59Z"/>
  <path class="cls-2" d="M653.76,214.08c-2.46-.57-7.75-.15-7.68-3.83,2.03.24,8.87-.76,8.64,2.87-.23.36-.66.64-.96.96Z"/>
  <path class="cls-2" d="M505.91,340.8c.39.45-.53,9.62-3.83,8.63-.17-3.06-.35-8.39,3.83-8.63Z"/>
  <path class="cls-2" d="M705.59,349.44c-2.88.51-1.51-.79-2.01-2.25-.32-.91-2.06-6.15-1.82-6.38,3.34-3.14,4.85,6.57,3.83,8.63Z"/>
  <path class="cls-2" d="M430.07,226.56c-.31,2.62-.01,8.6-3.83,8.63-.11-2.26.24-8.67,3.83-8.63Z"/>
  <path class="cls-2" d="M779.53,235.2c.89-1.89-2.51-7.99-1.92-8.63,1.7-1.85,7.93,9.07,1.92,8.63Z"/>
  <path class="cls-2" d="M713.28,334.08c-1.45,1.47-7-3.2-5.75-5.75,2.18-.68,7.45,4.02,5.75,5.75Z"/>
  <path class="cls-2" d="M782.39,341.76c.94,1.02.55,5.74.16,7.35-.42,1.72.61,2.69-2.07,2.25.05-.72-.85-12.59,1.9-9.6Z"/>
  <path class="cls-2" d="M459.83,312.96c2.04,2.15-5.43,6.93-6.71,5.75-1.44-1.33,5.62-6.9,6.71-5.75Z"/>
  <path class="cls-2" d="M495.37,334.08c-.78-2.03,2.59-6.1,4.3-5.75,3.96.81-1.65,6.51-4.3,5.75Z"/>
  <path class="cls-2" d="M754.56,360c.64.66-3.05,8.55-5.75,7.67-.86-.89,4.08-9.4,5.75-7.67Z"/>
  <path class="cls-2" d="M788.15,347.52c-.23,2.05.7,8.98-2.87,8.63-.18-2.18.25-4.32.83-6.41.45-1.64-.7-2.67,2.04-2.22Z"/>
  <path class="cls-2" d="M422.39,346.56c.11.61.63,12.93-1.91,9.59-.11-.61-.63-12.93,1.91-9.59Z"/>
  <path class="cls-2" d="M790.07,305.28c-.71,2.19,1.87,9.33-1.91,8.63.71-2.19-1.87-9.33,1.91-8.63Z"/>
  <path class="cls-2" d="M427.19,351.36c-2.98-1.4-2.65-7.48-.47-9.59l.47,9.59Z"/>
  <path class="cls-2" d="M788.16,267.84c-.31,2.72,1.28,7.21-1.91,8.64.7-2.19-1.87-9.33,1.91-8.64Z"/>
  <path class="cls-2" d="M455.98,360.01c.28.24,3.22,6.36,2.89,6.71-2.54,2.72-6.94-10.16-2.89-6.71Z"/>
  <path class="cls-2" d="M767.03,207.36c-.19,2.48,1.08,6.46-1.91,7.67.62-2.1-1.77-8.44,1.91-7.67Z"/>
  <path class="cls-2" d="M431.99,374.4v4.79c-3.94.09-3.94-4.88,0-4.79Z"/>
  <path class="cls-2" d="M778.55,374.4c1.2,5-4.16,9.37-2.04,2.23.48-1.6-.74-2.7,2.04-2.23Z"/>
  <rect class="cls-2" x="688.33" y="260.16" width="1.91" height="5.75"/>
  <path class="cls-2" d="M694.07,244.8c.59.63-.22,3.36-1.45,3.83-3.34,1.26-.36-5.78,1.45-3.83Z"/>
  <path class="cls-1" d="M735.36,356.16v9.6c-.92.21-.9-.94-.96-.96,0-.96,0-1.92,0-2.88,0-1.06-.11-7.12.96-5.76Z"/>
  <path class="cls-2" d="M475.2,205.43c-1.79.26-3.33,0-3.84-1.9,1.79-.26,3.33,0,3.84,1.9Z"/>
  <path class="cls-2" d="M552,338.88c-.64.68-2.54.67-2.88.96.05-.63-.08-1.3,0-1.92,1.05,0,2.01-.75,2.88-.96.1.61-.14,1.4,0,1.92Z"/>
  <path class="cls-2" d="M656.64,321.6c-.14,0-.25.75-.59.88-2.18.78-1.74-1.48.59-2.8v1.92Z"/>
  <path class="cls-2" d="M776.64,254.4c-.34.04-.88-.1-.96,0l.48-.94.48.94Z"/>
  <path class="cls-2" d="M707.52,516.48c.7,2.28-1.71,2.57-3.43,2.78-21.36,2.51-44.62-9.41-64.03-2.57-4.56,1.61-8.32,5.16-13.16,6.03,15.39-19.59,35.09-8.79,54.24-7.22,8.73.71,17.66-.51,26.38.98Z"/>
  <path class="cls-2" d="M527.04,279.36c1.16,2.03,1.58,2.33,1.92,2.88.16.25.17,1.6.96,2.88.26.43.43,1.09.96,1.92.13.99.39,7.05-1.91,4.8-.2-.19-1.26-3.74-2.12-5.09-1.56-2.46-6.74-8.44-7.35-9.93-2.28-5.56,4.27.77,5.13,1.63.73.73,2.34.8,2.41.91Z"/>
  <path class="cls-2" d="M527.04,279.36c-.93-1.83-5.91-11.29-5.81-11.96.07-.53,1.94-.47,2.03-1.11.26-1.84-3.04-8.93-1.97-9.97,3.88-3.76,4.61,9.92,4.97,10.86.55,1.43,2.36,1.98,3.66,2.57l-4.8-17.75c-.11-.84,1.79-.58,1.91-.48.4.34,4.2,8.22,4.55,9.38,1.11,3.64,1.51,6.97,1.23,10.78h2.87c-1-4.12-1.39-8.38-2.38-12.51-.42-1.75-4.36-7.75-.99-7.65,3.13,1.29,6.45,13.63,6.23,16.75-.12,1.66-1.95,3.26-1.45,4.37.46,1.02,4.13,3.88,5.32,5.26s1.56,3.5,2.92,4.76c2.64,2.45,7.73,3.93,8.61,9.15,1.61.28.79-1.21.93-2.21.23-1.6,2.91.29,3.86.3.87.72,1.33,1.4,1.92,1.92.26,5.57,6.32,9.57,2.88,15.36-1.08-.49-2.58-1.82-2.88-1.92,2.05-3.26-2.74-8.76-4.32-11.52l1.44,9.59c-1.18-.13-2.12.65-2.89-.65-.89-1.5-2.65-8.91-3.84-9.9-3.87-3.23,1.33,10.93-2.88,7.21-2.42-2.14-4.67-16.1-7.68-18.73-.59-.51-2.29-.44-1.81,1.32,1.1,3.99,4.65,8.25,3.74,13.06-.88.13-1.22.1-1.93-.46-2.21-1.72-6.74-19.01-10.07-20.65-1.63-.8-1.6.6-1.03,1.99,2.27,5.57,6.61,10.29,7.29,16.71-2.38,1.26-4.54-4.31-5.77-6.23-.15-1.21-.88-1.64-.96-1.92-.35-1.29-.47-1.66-.96-2.88-.86-2.15-1.69-2.44-1.92-2.88ZM528.95,271.69c-1.05-1.05-2.96.86-1.91,1.91s2.96-.86,1.91-1.91ZM535.69,275.52c-.39,1.82,1.22,2.59,2.4,3.82.23-1.04-2.02-4.63-2.4-3.82ZM548.64,289.92v.96c.62-.32.62-.64,0-.96Z"/>
  <path class="cls-2" d="M516.48,204.48c3.6.2,9.86-4.96,10.57.96l-2.88.95c2.83.16,7.73-1.24,7.67,2.88-2.75-1.06-14.54,4.64-15.35,3.84-.13-.13.27-1.68-.31-2.52s-2.57-1.28-2.58-3.23c.43-.57,2.23-2.3,2.88-2.88ZM517.92,209.28v.96c.62-.32.62-.64,0-.96Z"/>
  <path class="cls-2" d="M520.32,197.76c-.87,1.09-1.32.66-1.92.96.89-3.39-8.79-9.2-6.71-11.52.78-.87,11.96,6.38,8.63,10.56Z"/>
  <path class="cls-2" d="M616.32,301.44c9.32-17.94,12.17-9.79.96,1.92-.29-.63-.73-1.05-.96-1.92Z"/>
  <path class="cls-2" d="M592.32,301.44c-.46,3.16-1.37,1.42-1.92,1.92l-7.68-12.48c5.18,1.19,6.77,6.97,9.6,10.56Z"/>
  <path class="cls-2" d="M623.03,409.92c-1.45,0-1.79-2.9-2.16-4.06-.86-2.71-1.7-5.52-1.66-8.41,1.45,0,1.79,2.9,2.16,4.06.86,2.71,1.7,5.52,1.66,8.41Z"/>
  <path class="cls-2" d="M594.24,392.65l-2.87,11.51c-.25-3.1.18-6.18.93-9.18.4-1.61-.96-2.8,1.94-2.33Z"/>
  <path class="cls-2" d="M586.55,408.95c-1.82-.39,0-5.64.3-6.91.4-1.67,1.11-5.68,2.59-6.52l-2.88,13.43Z"/>
  <path class="cls-2" d="M695.99,276.47c-1.72.22-.93-2.15-.83-3.23.11-1.25.54-5.89,1.79-6.36l-.96,9.59Z"/>
  <path class="cls-2" d="M513.59,277.44c-2.32-1.46-1.79-6.29-1.9-8.63l1.9,8.63Z"/>
  <path class="cls-2" d="M694.09,414.71c-.15-1.96,1.71-.47,2.58-.18,2.85.96,5.98,2.12,7.95,4.52l-10.53-4.34Z"/>
  <path class="cls-2" d="M606.72,348.48c-.03,1.01.42,3.83-.48,3.85-.86-.69-1.35-2.78-1.44-3.85h1.92Z"/>
  <path class="cls-2" d="M602.87,479.04h-.94c-.48-3.99,1.42-3.99.94,0Z"/>
  <path class="cls-2" d="M618.72,395.52c.62.32.62.64,0,.96v-.96Z"/>
  <path class="cls-2" d="M706.08,419.52c.62.32.62.64,0,.96v-.96Z"/>
  <path class="cls-2" d="M533.76,222.72c.13-.79-.22-2.59,0-2.86.46-.57,6.44-.07,6.71-1.93-2.73-1.18-10.51,1.21-11.95.91-2.5-.52-.35-3.65-.52-3.79-.91-.74-5.44,1.33-5.76.95-3.62-4.26,12.03-5.79,14.39-4.79l-.96,2.86c5.89-1.06,5.35,2.86,7,4.53.93.95,5.15.8,4.52,4.12h-13.44Z"/>
  <path class="cls-2" d="M552.15,249.49c1.14.65,3.05-.98,4.1-.74,2.64.6,5.2,16.89,4.39,20.04-3.84,0-3.41-5.88-3.84-8.63-2.01-.22-.44,3.34-.95,3.84-.1.1-2.77.09-2.87,0-.64-.6-2.89-15.16-2.88-17.28,1.47-.05,1.56,2.49,2.06,2.77ZM554.87,254.4v-3.83h-.94v3.83h.94Z"/>
  <path class="cls-2" d="M551.99,239.05c-2.22.31.27,3.89.01,5.25-.14.75-1.42,1.94-2.4.5-.29-.42-4.16-8.66-4.3-9.15-.73-2.64,3.06-.89,3.82-1.42l-1.91-4.79c5.2.6,9.68,11.56,8.58,15.75-1.24,4.71-4.43-4.44-3.79-6.15ZM550.07,237.12c.69-1.35-.61-2.56-.94-1.91-.69,1.35.61,2.56.94,1.91Z"/>
  <path class="cls-2" d="M527.99,247.68c-3.76,1.18-2.54-3.05-5.75-2.87,3.74,10.79-5.46-.08-6.71-3.38-1.42-3.74,5.29.9,5.73.99l-4.78-6.24c5.74-.48,12,5.8,11.51,11.51Z"/>
  <path class="cls-2" d="M531.85,248.64c-.3-.24-1.37-6.09-3.05-7.04l-9.44-10.23c6.8-1.46,14.92,9.23,15.22,15.06.08,1.61-1.89,2.87-2.73,2.21Z"/>
  <path class="cls-2" d="M561.6,248.65c-.78-.12-2.67.19-2.87,0-.36-.33-.94-7.88-1.42-9.63s-4.05-9.81-3.39-10.53c7.68,2.56,7.95,13.36,7.67,20.16Z"/>
  <path class="cls-2" d="M552,227.51l-13.43.96c-.59-6,16.48-4.31,13.43-.96Z"/>
  <path class="cls-2" d="M520.31,266.88c-3.17.64-2.55-4.98-2.87-6.71l2.87,6.71Z"/>
  <path class="cls-2" d="M517.44,248.64c-1.76.63-4.7-2.93-3.83-3.83,1.76-.63,4.7,2.93,3.83,3.83Z"/>
  <path class="cls-2" d="M587.52,275.52c-.13-.15.27-1.17-.19-1.69-.54-.62-6.64-3.1-8.56-4.46-.48-.34-3.56-1.15-1.8-2.48,2.59-1.96,15.33,5.08,15.35,9.59-1.54-.36-3.29-.55-4.79-.96,1.81,2.11,5.1,4.78,3.36,7.68-2.82-3.92-7.2-4.93-11.07-7.21-1.24-.73-2.42.17-1.89-2.38,3.7-.75,6.3,1.02,9.6,1.91Z"/>
  <path class="cls-2" d="M592.31,292.8l-10.57-9.1-1.9-3.37c6.04.33,12.57,6.28,12.47,12.47Z"/>
  <path class="cls-2" d="M621.12,274.56c-.75.41-4.51,2.23-4.79,1.92-2.59-2.82,11.73-12.24,15.35-9.12l-8.64,6.24c-.76.12-1.41.36-1.92.96Z"/>
  <path class="cls-2" d="M623.04,273.6c.88-.14,7.81-.8,6.71,1.43s-10.52,4.49-12,8.17c-2.2-3.88,2.98-5.22,3.36-8.64.56-.31,1.42-.34,1.92-.96Z"/>
  <path class="cls-2" d="M627.84,280.33l-1.91,3.36-9.6,9.11c-2.15-4.14,9.22-14.55,11.51-12.47Z"/>
</svg>